<svg width="23" height="24" viewBox="0 0 23 24" fill="none" xmlns="http://www.w3.org/2000/svg">
<path fill-rule="evenodd" clip-rule="evenodd" d="M11.5 20.3086C12.898 20.3086 14.0312 19.3012 14.0312 18.0586C14.0312 16.816 12.898 15.8086 11.5 15.8086C10.102 15.8086 8.96875 16.816 8.96875 18.0586C8.96875 19.3012 10.102 20.3086 11.5 20.3086ZM11.5 22.0586C13.9853 22.0586 16 20.2677 16 18.0586C16 15.8495 13.9853 14.0586 11.5 14.0586C9.01472 14.0586 7 15.8495 7 18.0586C7 20.2677 9.01472 22.0586 11.5 22.0586Z" fill="#F8F8F8"/>
<path fill-rule="evenodd" clip-rule="evenodd" d="M11.5 20.2211C16.2842 20.2211 20.1625 16.3428 20.1625 11.5586C20.1625 6.77443 16.2842 2.89609 11.5 2.89609C6.71583 2.89609 2.8375 6.77443 2.8375 11.5586C2.8375 16.3428 6.71583 20.2211 11.5 20.2211ZM11.5 22.0586C17.299 22.0586 22 17.3576 22 11.5586C22 5.7596 17.299 1.05859 11.5 1.05859C5.70101 1.05859 1 5.7596 1 11.5586C1 17.3576 5.70101 22.0586 11.5 22.0586Z" fill="#F8F8F8"/>
<path fill-rule="evenodd" clip-rule="evenodd" d="M11.5 20.1836C14.6066 20.1836 17.125 17.6652 17.125 14.5586C17.125 11.452 14.6066 8.93359 11.5 8.93359C8.3934 8.93359 5.875 11.452 5.875 14.5586C5.875 17.6652 8.3934 20.1836 11.5 20.1836ZM11.5 22.0586C15.6421 22.0586 19 18.7007 19 14.5586C19 10.4165 15.6421 7.05859 11.5 7.05859C7.35786 7.05859 4 10.4165 4 14.5586C4 18.7007 7.35786 22.0586 11.5 22.0586Z" fill="#F8F8F8"/>
</svg>
