<svg width="26" height="26" viewBox="0 0 26 26" fill="none" xmlns="http://www.w3.org/2000/svg">
<path d="M8.99072 11.9181L13.211 7.69787C13.4056 7.49637 13.5133 7.22648 13.5109 6.94634C13.5084 6.66621 13.3961 6.39823 13.198 6.20014C12.9999 6.00205 12.7319 5.88968 12.4518 5.88725C12.1716 5.88481 11.9017 5.9925 11.7002 6.18713L5.65618 12.2312C5.55662 12.3302 5.47761 12.4479 5.42369 12.5775C5.36978 12.7071 5.34202 12.8462 5.34202 12.9866C5.34202 13.127 5.36978 13.266 5.42369 13.3956C5.47761 13.5252 5.55662 13.6429 5.65618 13.7419L11.7002 19.786C11.7988 19.888 11.9167 19.9694 12.047 20.0254C12.1774 20.0814 12.3176 20.1109 12.4595 20.1121C12.6013 20.1134 12.742 20.0863 12.8733 20.0326C13.0046 19.9789 13.1239 19.8995 13.2242 19.7992C13.3245 19.6989 13.4039 19.5796 13.4576 19.4483C13.5113 19.317 13.5384 19.1763 13.5371 19.0345C13.5359 18.8926 13.5064 18.7524 13.4504 18.622C13.3944 18.4917 13.313 18.3738 13.211 18.2752L8.99072 14.055H19.2326C19.516 14.055 19.7877 13.9424 19.9881 13.742C20.1885 13.5417 20.301 13.2699 20.301 12.9866C20.301 12.7032 20.1885 12.4314 19.9881 12.2311C19.7877 12.0307 19.516 11.9181 19.2326 11.9181H8.99072Z" fill="#F8F8F8"/>
</svg>
