<svg width="25" height="25" viewBox="0 0 25 25" fill="none" xmlns="http://www.w3.org/2000/svg">
<path d="M15.9736 10.3893L15.9736 16.3576C15.9784 16.6377 16.0931 16.9047 16.2929 17.1011C16.4927 17.2974 16.7617 17.4075 17.0418 17.4075C17.322 17.4075 17.5909 17.2974 17.7907 17.1011C17.9905 16.9047 18.1052 16.6377 18.1101 16.3576L18.1101 7.81003C18.1105 7.66963 18.0831 7.53054 18.0296 7.40075C17.976 7.27096 17.8974 7.15303 17.7981 7.05376C17.6988 6.95448 17.5809 6.87581 17.4511 6.82226C17.3213 6.76872 17.1822 6.74137 17.0418 6.74177L8.49423 6.74177C8.35238 6.7393 8.21147 6.76511 8.0797 6.81769C7.94793 6.87027 7.82796 6.94856 7.72677 7.048C7.62559 7.14744 7.54522 7.26604 7.49036 7.39688C7.4355 7.52771 7.40724 7.66816 7.40724 7.81003C7.40724 7.9519 7.4355 8.09235 7.49036 8.22318C7.54522 8.35401 7.62559 8.47261 7.72677 8.57205C7.82796 8.67149 7.94793 8.74979 8.0797 8.80236C8.21147 8.85494 8.35238 8.88075 8.49423 8.87829L14.4626 8.87829L7.22048 16.1204C7.02011 16.3208 6.90755 16.5925 6.90755 16.8759C6.90755 17.1592 7.02011 17.431 7.22048 17.6314C7.42085 17.8317 7.6926 17.9443 7.97597 17.9443C8.25933 17.9443 8.53109 17.8317 8.73146 17.6314L15.9736 10.3893Z" fill="#101010"/>
</svg>
