<svg width="24" height="25" viewBox="0 0 24 25" fill="none" xmlns="http://www.w3.org/2000/svg">
<g clip-path="url(#clip0_6068_3832)">
<path d="M17.6938 1.64551C18.0915 1.64563 18.4725 1.80354 18.7544 2.08398H18.7554L22.6685 6.01758L22.7681 6.12793C22.9861 6.39532 23.1069 6.73107 23.1069 7.0791C23.1069 7.42716 22.9862 7.76289 22.7681 8.03027L22.6685 8.14062L8.81494 21.9805L8.78955 22.0059L8.75439 22.0137L3.22803 23.2803L3.22119 23.2822L3.21338 23.2832C3.11338 23.294 3.01266 23.2931 2.9126 23.2832V23.2842C2.74516 23.2832 2.5795 23.2538 2.42236 23.1982L2.26807 23.1338C2.11753 23.0608 1.98061 22.9634 1.86279 22.8457L1.75146 22.7217C1.64693 22.591 1.56501 22.4441 1.50928 22.2871L1.4624 22.127C1.41161 21.9098 1.40993 21.6837 1.45752 21.4658L1.4585 21.4639L2.7251 15.9971L2.73291 15.9629L2.7583 15.9375L16.6313 2.08398H16.6323L16.7417 1.98438C17.0092 1.76608 17.3456 1.64551 17.6938 1.64551ZM4.17432 16.7607L3.04541 21.6152L7.99756 20.5771L18.2632 10.3584L14.439 6.53418L4.17432 16.7607ZM15.5093 5.3916L19.3315 9.21387L21.4116 7.08496L17.6519 3.26172L15.5093 5.3916Z" fill="#F8F8F8" stroke="#F8F8F8" stroke-width="0.25"/>
</g>
<defs>
<clipPath id="clip0_6068_3832">
<rect width="24" height="24" fill="white" transform="translate(0 0.558594)"/>
</clipPath>
</defs>
</svg>
