<svg width="24" height="25" viewBox="0 0 24 25" fill="none" xmlns="http://www.w3.org/2000/svg">
<path d="M13.208 20.5121C13.2076 21.1964 12.6751 21.729 11.9907 21.7293C11.6486 21.7295 11.3635 21.5965 11.1355 21.3685C10.9074 21.1405 10.7745 20.8554 10.7747 20.5132L10.778 13.5556L3.82033 13.5589C3.47815 13.5591 3.19306 13.4261 2.96505 13.1981C2.73704 12.9701 2.6041 12.685 2.60427 12.3428C2.6046 11.6585 3.13713 11.1259 3.8215 11.1256L10.7792 11.1223L10.7825 4.16458C10.7829 3.48022 11.3154 2.94768 11.9998 2.94735C12.6841 2.94703 13.2161 3.47905 13.2158 4.16342L13.2125 11.1211L20.1702 11.1178C20.8545 11.1174 21.3866 11.6495 21.3862 12.3338C21.3859 13.0182 20.8534 13.5507 20.169 13.5511L13.2113 13.5544L13.208 20.5121Z" fill="#101010"/>
</svg>
