<svg width="39" height="39" viewBox="0 0 39 39" fill="none" xmlns="http://www.w3.org/2000/svg">
<rect width="38.6667" height="38.6667" rx="19.3333" fill="black" fill-opacity="0.25"/>
<g clip-path="url(#clip0_6409_10178)">
<path d="M25.75 27.3755C25.9821 27.3755 26.205 27.4673 26.3691 27.6313C26.5332 27.7954 26.625 28.0184 26.625 28.2505C26.625 28.4826 26.5332 28.7055 26.3691 28.8696C26.205 29.0337 25.9821 29.1255 25.75 29.1255H10.75C10.5469 29.1255 10.351 29.0549 10.1953 28.9272L10.1309 28.8696C9.96676 28.7055 9.875 28.4826 9.875 28.2505C9.875 28.0184 9.96676 27.7954 10.1309 27.6313L10.1953 27.5737C10.351 27.4461 10.5469 27.3755 10.75 27.3755H25.75ZM25.75 10.8755C25.9821 10.8755 26.205 10.9673 26.3691 11.1313L26.4268 11.1958C26.5544 11.3515 26.625 11.5474 26.625 11.7505V12.3774C27.1989 12.3913 27.7655 12.5114 28.2959 12.7329L28.5068 12.8276C28.9924 13.0596 29.4345 13.3745 29.8125 13.7593C30.2446 14.1992 30.585 14.7213 30.8125 15.2944C31.0399 15.8675 31.1505 16.4807 31.1377 17.0972C31.1264 17.6366 31.0207 18.1694 30.8262 18.6714L30.7373 18.8843C30.4862 19.4474 30.1248 19.955 29.6748 20.3765C29.2248 20.7979 28.6945 21.1246 28.1162 21.3384C27.569 21.5406 26.9889 21.636 26.4062 21.6226C26.055 22.8991 25.3009 24.0292 24.2529 24.8413C23.2459 25.6216 22.0226 26.0679 20.7539 26.1206L20.5 26.1255H16C14.3755 26.1255 12.8176 25.4802 11.6689 24.3315C10.5203 23.1829 9.875 21.6249 9.875 20.0005V11.7505C9.875 11.5184 9.96677 11.2954 10.1309 11.1313L10.1953 11.0737C10.351 10.9461 10.5469 10.8755 10.75 10.8755H25.75ZM11.625 20.0005C11.625 21.1608 12.0858 22.2738 12.9062 23.0942L13.0635 23.2437C13.866 23.9704 14.9122 24.3755 16 24.3755H20.5C21.6603 24.3755 22.7733 23.9147 23.5938 23.0942C24.4142 22.2738 24.875 21.1608 24.875 20.0005V12.6255H11.625V20.0005ZM26.625 19.8687C27.342 19.8374 28.0236 19.5433 28.5332 19.0337L28.7236 18.8228C29.1429 18.3111 29.375 17.6678 29.375 17.0005C29.375 16.3332 29.1429 15.6899 28.7236 15.1782L28.5332 14.9673C28.0236 14.4577 27.342 14.1626 26.625 14.1313V19.8687Z" fill="#101010" stroke="#101010" stroke-width="0.25"/>
<path d="M13 21.0005C13 19.8959 13.8954 19.0005 15 19.0005H21C22.1046 19.0005 23 19.8959 23 21.0005C23 22.1051 22.1046 23.0005 21 23.0005H15C13.8954 23.0005 13 22.1051 13 21.0005Z" fill="#805231"/>
</g>
<defs>
<clipPath id="clip0_6409_10178">
<rect width="24" height="24" fill="white" transform="translate(7.33325 7.3335)"/>
</clipPath>
</defs>
</svg>
