<svg width="71" height="78" viewBox="0 0 71 78" fill="none" xmlns="http://www.w3.org/2000/svg">
<path d="M36 4.62109L39.8676 13.2978L49.3148 14.2949L42.258 20.6544L44.229 29.9473L36 25.2011L27.771 29.9473L29.742 20.6544L22.6852 14.2949L32.1324 13.2978L36 4.62109Z" fill="#03DAC6"/>
<path d="M1.60612 4.76503H12.8484C13.3165 4.76503 13.7197 4.43951 13.8418 3.98756C14.0873 3.07895 14.3892 2.21365 14.7021 1.30186C14.8416 0.89552 15.2233 0.621094 15.6529 0.621094H55.3507C55.7667 0.621094 56.1411 0.87793 56.2714 1.2729C56.5658 2.16462 56.8116 3.11665 57.1071 4.08021C57.233 4.49094 57.6158 4.76503 58.0454 4.76503H69.3701C70.3336 4.76503 70.9761 5.56179 70.9761 6.3591V11.3003C70.9761 22.473 62.8368 31.782 52.1219 33.5499C51.8574 33.5935 51.6188 33.7371 51.4548 33.9491C50.2156 35.5516 48.7131 36.8841 47.2105 38.0774C43.9992 40.4683 41.9115 44.134 41.9115 48.119V50.3484C41.9115 50.5257 42.0552 50.6694 42.2325 50.6694C44.9621 50.6694 47.0498 52.7416 47.0498 55.451V59.907C47.0498 60.4391 47.4811 60.8704 48.0132 60.8704C50.7429 60.8704 52.8305 62.9427 52.8305 65.6521V72.3459C52.8305 75.0553 50.7429 77.1276 48.0132 77.1276H22.8022C20.0726 77.1276 17.9849 75.0553 17.9849 72.3459V65.6516C17.9849 62.9421 20.0726 60.8699 22.8022 60.8699C23.3343 60.8699 23.7657 60.4385 23.7657 59.9064V55.4505C23.7657 52.7411 25.8534 50.6688 28.583 50.6688C28.8491 50.6688 29.0647 50.4531 29.0647 50.1871V48.1184C29.0647 44.1335 26.977 40.4677 23.7657 38.0769C22.261 36.8824 20.7569 35.5478 19.5163 33.9419C19.3554 33.7337 19.1226 33.5913 18.8637 33.545C8.14417 31.6268 0.000167847 22.3178 0.000167847 11.2998L0.000701904 6.3591C0.000701904 5.40277 0.642654 4.76503 1.6061 4.76503H1.60612ZM67.7642 11.3003C67.7642 11.3003 67.7642 11.3003 67.7642 11.3003V8.95318C67.7642 8.40089 67.3165 7.95317 66.7642 7.95317H59.0647C58.4764 7.95317 58.016 8.45853 58.0675 9.04462C58.1894 10.4339 58.2903 11.8233 58.2903 13.213C58.2903 18.4431 57.2673 23.2218 55.4123 27.3597C55.0409 28.1883 55.8152 29.0835 56.6367 28.6966C63.2445 25.5842 67.7642 19.0192 67.7642 11.3004C67.7642 11.3003 67.7642 11.3003 67.7642 11.3003ZM30.2878 19.5397C30.5274 19.7696 30.6372 20.1035 30.5809 20.4307L29.8851 24.4753C29.7455 25.2867 30.5913 25.9097 31.3248 25.5358L35.0341 23.645C35.3194 23.4996 35.6571 23.4996 35.9424 23.645L39.6518 25.5358C40.3852 25.9097 41.231 25.2867 41.0914 24.4753L40.3956 20.4308C40.3393 20.1035 40.4492 19.7696 40.6888 19.5397L43.6397 16.7083C44.2415 16.1309 43.9136 15.1138 43.0877 14.9967L38.9097 14.4042C38.578 14.3572 38.2919 14.1472 38.1476 13.8448L36.3664 10.1121C36.0085 9.36197 34.9448 9.35057 34.5708 10.0929L32.6713 13.8635C32.5245 14.1549 32.2449 14.3563 31.922 14.4032L27.8789 14.9905C27.0551 15.1102 26.7296 16.1253 27.3303 16.7017L30.2878 19.5397ZM3.21234 11.3003C3.21234 19.0196 7.73283 25.7136 14.3416 28.8514C15.1618 29.2409 15.9372 28.3461 15.5679 27.5166C13.7106 23.3449 12.6862 18.4714 12.6862 13.3715C12.6862 12.0131 12.7827 10.6543 12.9755 9.29576C13.0632 8.67755 12.5926 8.11165 11.9682 8.11165H4.21234C3.66006 8.11165 3.21234 8.55937 3.21234 9.11165V11.3003Z" fill="#295FE6"/>
<path d="M24 50.6211H46" stroke="#CAD7F9" stroke-width="2" stroke-linecap="round"/>
<path d="M21.7624 30.2741C20.1671 26.1263 14.424 19.107 18.8909 7.62085" stroke="#F8F8F8" stroke-width="2.70732" stroke-linecap="round" stroke-dasharray="9.02 0"/>
</svg>
