<svg width="24" height="25" viewBox="0 0 24 25" fill="none" xmlns="http://www.w3.org/2000/svg">
<path d="M18.4167 20.6006C18.6488 20.6006 18.8718 20.6924 19.0359 20.8564C19.2 21.0205 19.2917 21.2435 19.2917 21.4756C19.2917 21.7076 19.2 21.9306 19.0359 22.0947C18.8718 22.2588 18.6488 22.3506 18.4167 22.3506H3.41675C3.21363 22.3506 3.01778 22.28 2.86206 22.1523L2.79761 22.0947C2.63351 21.9306 2.54175 21.7076 2.54175 21.4756C2.54175 21.2435 2.63351 21.0205 2.79761 20.8564L2.86206 20.7988C3.01778 20.6712 3.21363 20.6006 3.41675 20.6006H18.4167ZM18.4167 4.10059C18.6488 4.10059 18.8718 4.19235 19.0359 4.35645L19.0935 4.4209C19.2211 4.57662 19.2917 4.77247 19.2917 4.97559V5.60254C19.8656 5.61641 20.4323 5.73646 20.9626 5.95801L21.1736 6.05273C21.6592 6.28473 22.1013 6.59963 22.4792 6.98438C22.9113 7.42428 23.2518 7.9464 23.4792 8.51953C23.7067 9.09262 23.8173 9.70584 23.8044 10.3223C23.7932 10.8617 23.6874 11.3945 23.4929 11.8965L23.4041 12.1094C23.1529 12.6725 22.7916 13.1801 22.3416 13.6016C21.8915 14.023 21.3613 14.3497 20.783 14.5635C20.2357 14.7657 19.6556 14.8611 19.073 14.8477C18.7218 16.1242 17.9676 17.2543 16.9197 18.0664C15.9127 18.8467 14.6894 19.293 13.4207 19.3457L13.1667 19.3506H8.66675C7.0423 19.3506 5.48435 18.7053 4.33569 17.5566C3.18703 16.408 2.54175 14.85 2.54175 13.2256V4.97559C2.54175 4.74352 2.63351 4.52054 2.79761 4.35645L2.86206 4.29883C3.01778 4.17118 3.21363 4.10059 3.41675 4.10059H18.4167ZM4.29175 13.2256C4.29175 14.3859 4.75253 15.4989 5.573 16.3193L5.73022 16.4688C6.53279 17.1955 7.57891 17.6006 8.66675 17.6006H13.1667C14.3271 17.6006 15.44 17.1398 16.2605 16.3193C17.081 15.4989 17.5417 14.3859 17.5417 13.2256V5.85059H4.29175V13.2256ZM19.2917 13.0938C20.0087 13.0625 20.6904 12.7684 21.2 12.2588L21.3904 12.0479C21.8097 11.5362 22.0417 10.8929 22.0417 10.2256C22.0417 9.55829 21.8097 8.91496 21.3904 8.40332L21.2 8.19238C20.6904 7.68278 20.0087 7.38766 19.2917 7.35645V13.0938Z" fill="#F8F8F8" stroke="#F8F8F8" stroke-width="0.25"/>
</svg>
