<svg width="39" height="39" viewBox="0 0 39 39" fill="none" xmlns="http://www.w3.org/2000/svg">
<rect x="0.5" y="0.5" width="37.6667" height="37.6667" rx="18.8333" fill="black" fill-opacity="0.2"/>
<path fill-rule="evenodd" clip-rule="evenodd" d="M19.3333 28.0835C20.7312 28.0835 21.8645 27.0761 21.8645 25.8335C21.8645 24.5909 20.7312 23.5835 19.3333 23.5835C17.9353 23.5835 16.802 24.5909 16.802 25.8335C16.802 27.0761 17.9353 28.0835 19.3333 28.0835ZM19.3333 29.8335C21.8185 29.8335 23.8333 28.0426 23.8333 25.8335C23.8333 23.6244 21.8185 21.8335 19.3333 21.8335C16.848 21.8335 14.8333 23.6244 14.8333 25.8335C14.8333 28.0426 16.848 29.8335 19.3333 29.8335Z" fill="#101010"/>
<path fill-rule="evenodd" clip-rule="evenodd" d="M19.3333 27.996C24.1174 27.996 27.9958 24.1177 27.9958 19.3335C27.9958 14.5493 24.1174 10.671 19.3333 10.671C14.5491 10.671 10.6708 14.5493 10.6708 19.3335C10.6708 24.1177 14.5491 27.996 19.3333 27.996ZM19.3333 29.8335C25.1322 29.8335 29.8333 25.1325 29.8333 19.3335C29.8333 13.5345 25.1322 8.8335 19.3333 8.8335C13.5343 8.8335 8.83325 13.5345 8.83325 19.3335C8.83325 25.1325 13.5343 29.8335 19.3333 29.8335Z" fill="#101010"/>
<path fill-rule="evenodd" clip-rule="evenodd" d="M19.3333 27.9585C22.4399 27.9585 24.9583 25.4401 24.9583 22.3335C24.9583 19.2269 22.4399 16.7085 19.3333 16.7085C16.2266 16.7085 13.7083 19.2269 13.7083 22.3335C13.7083 25.4401 16.2266 27.9585 19.3333 27.9585ZM19.3333 29.8335C23.4754 29.8335 26.8333 26.4756 26.8333 22.3335C26.8333 18.1914 23.4754 14.8335 19.3333 14.8335C15.1911 14.8335 11.8333 18.1914 11.8333 22.3335C11.8333 26.4756 15.1911 29.8335 19.3333 29.8335Z" fill="#101010"/>
</svg>
