<svg width="29" height="28" viewBox="0 0 29 28" fill="none" xmlns="http://www.w3.org/2000/svg">
<path d="M6.63159 21.3682V9.8418C6.63171 9.56575 6.85552 9.3418 7.13159 9.3418C7.40766 9.3418 7.63147 9.56575 7.63159 9.8418V21.3682C7.63154 21.6443 7.4077 21.8682 7.13159 21.8682C6.85548 21.8682 6.63165 21.6443 6.63159 21.3682ZM14.2546 21.3682V6C14.2546 5.72386 14.4785 5.5 14.7546 5.5C15.0308 5.5 15.2546 5.72386 15.2546 6V21.3682C15.2546 21.6443 15.0307 21.8682 14.7546 21.8682C14.4785 21.8682 14.2547 21.6443 14.2546 21.3682ZM21.8777 21.3682V14.9648C21.8777 14.6887 22.1015 14.4648 22.3777 14.4648C22.6538 14.4648 22.8777 14.6887 22.8777 14.9648V21.3682C22.8776 21.6443 22.6538 21.8682 22.3777 21.8682C22.1016 21.8682 21.8777 21.6443 21.8777 21.3682Z" stroke="#B3B3B3" stroke-linecap="round"/>
<path d="M4.5 25H25.5" stroke="#B3B3B3" stroke-width="2" stroke-linecap="round"/>
</svg>
