<svg width="25" height="24" viewBox="0 0 25 24" fill="none" xmlns="http://www.w3.org/2000/svg">
<path d="M15.9736 10.0558L15.9736 16.0241C15.9784 16.3042 16.0931 16.5712 16.2929 16.7676C16.4927 16.9639 16.7617 17.074 17.0418 17.074C17.322 17.074 17.5909 16.9639 17.7907 16.7676C17.9905 16.5712 18.1052 16.3042 18.1101 16.0241L18.1101 7.47653C18.1105 7.33613 18.0831 7.19704 18.0296 7.06725C17.976 6.93746 17.8974 6.81954 17.7981 6.72026C17.6988 6.62098 17.5809 6.54231 17.4511 6.48877C17.3213 6.43523 17.1822 6.40787 17.0418 6.40827L8.49423 6.40827C8.35238 6.40581 8.21147 6.43162 8.0797 6.48419C7.94793 6.53677 7.82796 6.61507 7.72677 6.71451C7.62559 6.81395 7.54522 6.93255 7.49036 7.06338C7.4355 7.19421 7.40724 7.33466 7.40724 7.47653C7.40724 7.6184 7.4355 7.75885 7.49036 7.88968C7.54522 8.02052 7.62559 8.13911 7.72677 8.23856C7.82796 8.338 7.94793 8.41629 8.0797 8.46887C8.21147 8.52145 8.35238 8.54726 8.49423 8.54479L14.4626 8.54479L7.22048 15.7869C7.02011 15.9873 6.90755 16.259 6.90755 16.5424C6.90755 16.8257 7.02011 17.0975 7.22048 17.2979C7.42085 17.4982 7.6926 17.6108 7.97597 17.6108C8.25933 17.6108 8.53109 17.4982 8.73146 17.2979L15.9736 10.0558Z" fill="#B3B3B3"/>
</svg>
