<svg width="77" height="77" viewBox="0 0 77 77" fill="none" xmlns="http://www.w3.org/2000/svg">
<circle cx="38.5" cy="38.499" r="38.5" fill="#101010"/>
<circle cx="38.5006" cy="38.4987" r="31.3659" stroke="#1E1E1E" stroke-width="3"/>
<path fill-rule="evenodd" clip-rule="evenodd" d="M38.4996 16.8408C36.0334 16.8408 33.5625 17.5191 31.6433 18.9567C29.724 20.3943 28.4035 22.6482 28.4035 25.4993V26.7446C23.7392 29.9397 20.6582 35.2852 20.6582 41.3602C20.6582 51.1499 28.6609 59.0969 38.4997 59.0969C48.3385 59.0969 56.3411 51.1499 56.3411 41.3602C56.3411 35.2879 53.2688 29.9421 48.611 26.7446V25.4993C48.611 22.6485 47.2905 20.3943 45.3712 18.9567C43.452 17.5191 40.966 16.8408 38.4998 16.8408H38.4996ZM38.4996 18.7614C40.6032 18.7614 42.7027 19.3576 44.2106 20.487C45.7185 21.6165 46.6818 23.2155 46.6818 25.4989V25.589C44.2277 24.3245 41.4511 23.6231 38.4996 23.6231C35.5656 23.6231 32.7872 24.3309 30.3321 25.589V25.4989C30.3321 23.2155 31.2955 21.6165 32.8033 20.487C34.3112 19.3576 36.396 18.7614 38.4991 18.7614H38.4996ZM38.4996 30.766C41.7094 30.766 44.3011 33.3682 44.3011 36.5432C44.3011 38.7917 43.0185 40.7397 41.1215 41.6899C41.8009 44.5853 42.5012 47.4842 43.1861 50.3778C43.253 50.6588 43.1861 50.9616 43.0051 51.1881C42.8255 51.4145 42.5265 51.5632 42.2365 51.5632H34.5666C34.2763 51.5632 33.9928 51.4148 33.8131 51.1881C33.6335 50.961 33.5649 50.6588 33.6322 50.3778C34.3335 47.4638 35.0506 44.5493 35.7267 41.6299C33.917 40.6472 32.6826 38.7403 32.6826 36.5431C32.6826 33.3637 35.3045 30.7659 38.4992 30.7659L38.4996 30.766Z" fill="#1E1E1E"/>
</svg>
