<svg width="24" height="25" viewBox="0 0 24 25" fill="none" xmlns="http://www.w3.org/2000/svg">
<path fill-rule="evenodd" clip-rule="evenodd" d="M12 4.86521C10.8701 5.85798 9.82513 6.94342 8.876 8.11021C7.305 10.0652 6 12.3752 6 14.5582C6 16.1495 6.63214 17.6756 7.75736 18.8009C8.88258 19.9261 10.4087 20.5582 12 20.5582C13.5913 20.5582 15.1174 19.9261 16.2426 18.8009C17.3679 17.6756 18 16.1495 18 14.5582C18 12.3752 16.695 10.0652 15.124 8.11021C14.1749 6.94342 13.1299 5.85798 12 4.86521ZM11.249 2.87921C11.4604 2.70478 11.7259 2.60937 12 2.60938C12.2741 2.60937 12.5396 2.70478 12.751 2.87921C14.1882 4.07392 15.5048 5.40662 16.682 6.85821C18.322 8.89721 20 11.6642 20 14.5582C20 16.6799 19.1571 18.7148 17.6569 20.2151C16.1566 21.7154 14.1217 22.5582 12 22.5582C9.87827 22.5582 7.84344 21.7154 6.34315 20.2151C4.84285 18.7148 4 16.6799 4 14.5582C4 11.6642 5.678 8.89721 7.318 6.85721C8.49491 5.40602 9.8122 4.07365 11.249 2.87921Z" fill="#F8F8F8"/>
</svg>
