<svg width="42" height="41" viewBox="0 0 42 41" fill="none" xmlns="http://www.w3.org/2000/svg">
<rect x="0.5" width="40.6667" height="40.6667" rx="20.3333" fill="black" fill-opacity="0.2"/>
<g clip-path="url(#clip0_5964_1893)">
<path d="M26.5271 9.42041C26.9247 9.42054 27.3057 9.57844 27.5876 9.85889H27.5886L31.5017 13.7925L31.6013 13.9028C31.8194 14.1702 31.9402 14.506 31.9402 14.854C31.9401 15.2021 31.8194 15.5378 31.6013 15.8052L31.5017 15.9155L17.6482 29.7554L17.6228 29.7808L17.5876 29.7886L12.0613 31.0552L12.0544 31.0571L12.0466 31.0581C11.9466 31.0689 11.8459 31.0681 11.7458 31.0581V31.0591C11.5784 31.0581 11.4127 31.0287 11.2556 30.9731L11.1013 30.9087C10.9508 30.8357 10.8139 30.7383 10.696 30.6206L10.5847 30.4966C10.4802 30.3659 10.3983 30.219 10.3425 30.062L10.2957 29.9019C10.2449 29.6847 10.2432 29.4586 10.2908 29.2407L10.2917 29.2388L11.5583 23.772L11.5662 23.7378L11.5916 23.7124L25.4646 9.85889H25.4656L25.575 9.75928C25.8424 9.54098 26.1789 9.42041 26.5271 9.42041ZM13.0076 24.5356L11.8787 29.3901L16.8308 28.3521L27.0964 18.1333L23.2722 14.3091L13.0076 24.5356ZM24.3425 13.1665L28.1648 16.9888L30.2449 14.8599L26.4851 11.0366L24.3425 13.1665Z" fill="black" stroke="black" stroke-width="0.25"/>
</g>
<defs>
<clipPath id="clip0_5964_1893">
<rect width="24" height="24" fill="white" transform="translate(8.83325 8.3335)"/>
</clipPath>
</defs>
</svg>
