<svg width="81" height="56" viewBox="0 0 81 56" fill="none" xmlns="http://www.w3.org/2000/svg">
<path d="M27.2954 55.8359H52.7376C67.8176 55.8359 80.0332 43.5091 80.0332 28.2915C80.0332 18.0051 74.3887 8.99334 66.133 4.31758C59.8285 0.747005 56.6119 0.747005 43.0495 0.747005H27.2955C12.2155 0.747005 -0.0001297 13.0739 -0.0001297 28.2915C-0.0001297 43.5089 12.2152 55.8359 27.2954 55.8359ZM46.6719 19.11C47.5986 17.58 48.6094 16.2197 49.7047 15.0295C50.0415 14.6043 50.7155 14.6043 51.1368 15.0295L53.6644 17.7502C54.0011 18.09 54.0011 18.6854 53.6644 19.0252C53.4117 19.2802 53.243 19.5352 53.0744 19.7902C51.8949 21.4056 50.6315 23.7011 50.3782 25.9112C51.979 25.996 53.8324 26.251 54.9272 27.6968C56.0225 29.0571 56.6119 30.5871 56.6119 32.2872C56.6119 34.0728 55.9379 35.6027 54.5899 36.9631C53.2418 38.3235 51.641 39.0036 49.7876 39.0036C47.9342 39.0036 46.3333 38.2386 44.9852 36.7934C43.6372 35.3482 42.9632 33.3931 42.9632 31.0975C42.9655 27.1012 44.2291 23.1056 46.6719 19.11ZM27.1269 19.11C28.0536 17.58 29.0644 16.2197 30.1597 15.0295C30.4964 14.6043 31.1705 14.6043 31.5918 15.0295L34.1193 17.7502C34.4561 18.09 34.4561 18.6854 34.1193 19.0252C33.8666 19.2802 33.698 19.5352 33.5293 19.7902C32.3499 21.4056 31.0865 23.7011 30.8332 25.9112C32.4346 25.996 34.288 26.251 35.3827 27.6968C36.4781 29.0571 37.0675 30.5871 37.0675 32.2872C37.0675 34.0728 36.3935 35.6027 35.0455 36.9631C33.6974 38.3235 32.0965 39.0036 30.2431 39.0036C28.3897 39.0036 26.7889 38.2386 25.4408 36.7934C24.0928 35.3482 23.4188 33.3931 23.4188 31.0975C23.3359 27.1012 24.5994 23.1056 27.1269 19.11Z" fill="#03DAC6"/>
</svg>
