<svg width="22" height="21" viewBox="0 0 22 21" fill="none" xmlns="http://www.w3.org/2000/svg">
<path fill-rule="evenodd" clip-rule="evenodd" d="M0.5 4C0.5 1.79086 2.29086 0 4.5 0H17.5C19.7091 0 21.5 1.79086 21.5 4V17C21.5 19.2091 19.7091 21 17.5 21H4.5C2.29086 21 0.5 19.2091 0.5 17V4ZM19.5 12.2008V4C19.5 2.89543 18.6046 2 17.5 2H4.5C3.39543 2 2.5 2.89543 2.5 4V12.2008C4.34046 10.8195 7.12298 9.5 11 9.5C14.877 9.5 17.6595 10.8195 19.5 12.2008ZM2.5 14.8482C2.79115 14.5529 3.1406 14.2339 3.55144 13.9144C5.08923 12.7183 7.50301 11.5 11 11.5C14.497 11.5 16.9108 12.7183 18.4486 13.9144C18.8594 14.2339 19.2089 14.5529 19.5 14.8482V17C19.5 18.1046 18.6046 19 17.5 19H4.5C3.39543 19 2.5 18.1046 2.5 17V14.8482Z" fill="#03DAC6"/>
</svg>
