<svg width="25" height="24" viewBox="0 0 25 24" fill="none" xmlns="http://www.w3.org/2000/svg">
<path d="M12.4988 16.3494C14.057 16.3494 15.3201 15.0734 15.3201 13.4994C15.3201 11.9254 14.057 10.6494 12.4988 10.6494C10.9406 10.6494 9.67749 11.9254 9.67749 13.4994C9.67749 15.0734 10.9406 16.3494 12.4988 16.3494Z" stroke="#B3B3B3" stroke-width="1.7"/>
<path d="M14.1598 4.1444C13.8147 4 13.3765 4 12.5 4C11.6235 4 11.1852 4 10.8401 4.1444C10.6117 4.23989 10.4042 4.3799 10.2295 4.55644C10.0547 4.73297 9.91611 4.94257 9.82159 5.17325C9.73507 5.3851 9.70027 5.63305 9.6871 5.9931C9.68124 6.25339 9.60999 6.5079 9.48003 6.73274C9.35007 6.95758 9.16567 7.14536 8.94415 7.27845C8.71929 7.40579 8.46607 7.4733 8.20829 7.47463C7.95051 7.47596 7.69662 7.41106 7.47048 7.28605C7.15449 7.11695 6.92596 7.02385 6.69932 6.99345C6.20494 6.92778 5.70499 7.06309 5.30934 7.36965C5.01404 7.6005 4.79398 7.98335 4.35573 8.75C3.91749 9.51665 3.69742 9.8995 3.64946 10.2747C3.61714 10.5222 3.6334 10.7736 3.6973 11.0147C3.7612 11.2558 3.87149 11.4818 4.02188 11.6798C4.16106 11.8622 4.35573 12.0151 4.65762 12.207C5.10245 12.4892 5.38834 12.9699 5.38834 13.5C5.38834 14.0301 5.10245 14.5108 4.65762 14.792C4.35573 14.9848 4.16012 15.1378 4.02188 15.3202C3.87149 15.5182 3.7612 15.7442 3.6973 15.9853C3.6334 16.2264 3.61714 16.4778 3.64946 16.7253C3.69837 17.0996 3.91749 17.4833 4.35479 18.25C4.79398 19.0166 5.0131 19.3995 5.30934 19.6303C5.50537 19.7823 5.7291 19.8937 5.96775 19.9582C6.20641 20.0228 6.45532 20.0392 6.70026 20.0066C6.92596 19.9762 7.15449 19.8831 7.47048 19.714C7.69662 19.5889 7.95051 19.524 8.20829 19.5254C8.46607 19.5267 8.71929 19.5942 8.94415 19.7215C9.39839 19.9875 9.66829 20.4768 9.6871 21.0069C9.70027 21.3679 9.73413 21.6149 9.82159 21.8267C9.91611 22.0574 10.0547 22.267 10.2295 22.4436C10.4042 22.6201 10.6117 22.7601 10.8401 22.8556C11.1852 23 11.6235 23 12.5 23C13.3765 23 13.8147 23 14.1598 22.8556C14.3882 22.7601 14.5957 22.6201 14.7705 22.4436C14.9452 22.267 15.0838 22.0574 15.1783 21.8267C15.2649 21.6149 15.2997 21.3679 15.3128 21.0069C15.3316 20.4768 15.6015 19.9866 16.0558 19.7215C16.2806 19.5942 16.5339 19.5267 16.7916 19.5254C17.0494 19.524 17.3033 19.5889 17.5295 19.714C17.8454 19.8831 18.074 19.9762 18.2997 20.0066C18.5446 20.0392 18.7935 20.0228 19.0322 19.9582C19.2708 19.8937 19.4946 19.7823 19.6906 19.6303C19.9868 19.4004 20.206 19.0166 20.6442 18.25C21.0824 17.4833 21.3025 17.1005 21.3505 16.7253C21.3828 16.4778 21.3665 16.2264 21.3026 15.9853C21.2387 15.7442 21.1284 15.5182 20.9781 15.3202C20.8389 15.1378 20.6442 14.9848 20.3423 14.7929C20.122 14.6577 19.9394 14.468 19.8115 14.2419C19.6837 14.0157 19.6149 13.7604 19.6116 13.5C19.6116 12.9699 19.8975 12.4892 20.3423 12.208C20.6442 12.0152 20.8398 11.8622 20.9781 11.6798C21.1284 11.4818 21.2387 11.2558 21.3026 11.0147C21.3665 10.7736 21.3828 10.5222 21.3505 10.2747C21.3016 9.90045 21.0824 9.51665 20.6451 8.75C20.206 7.98335 19.9868 7.6005 19.6906 7.36965C19.4946 7.21774 19.2708 7.10632 19.0322 7.04177C18.7935 6.97722 18.5446 6.9608 18.2997 6.99345C18.074 7.02385 17.8454 7.11695 17.5285 7.28605C17.3025 7.41089 17.0488 7.47569 16.7912 7.47436C16.5336 7.47303 16.2805 7.40562 16.0558 7.27845C15.8343 7.14536 15.6499 6.95758 15.5199 6.73274C15.3899 6.5079 15.3187 6.25339 15.3128 5.9931C15.2997 5.6321 15.2658 5.3851 15.1783 5.17325C15.0838 4.94257 14.9452 4.73297 14.7705 4.55644C14.5957 4.3799 14.3882 4.23989 14.1598 4.1444Z" stroke="#B3B3B3" stroke-width="1.7"/>
</svg>
