<svg width="25" height="25" viewBox="0 0 25 25" fill="none" xmlns="http://www.w3.org/2000/svg">
<path d="M16.5 2.5H8.5C5.191 2.5 2.5 5.191 2.5 8.5V21.5C2.5 21.7652 2.60536 22.0196 2.79289 22.2071C2.98043 22.3946 3.23478 22.5 3.5 22.5H16.5C19.809 22.5 22.5 19.809 22.5 16.5V8.5C22.5 5.191 19.809 2.5 16.5 2.5ZM20.5 16.5C20.5 18.706 18.706 20.5 16.5 20.5H4.5V8.5C4.5 6.294 6.294 4.5 8.5 4.5H16.5C18.706 4.5 20.5 6.294 20.5 8.5V16.5Z" fill="#B3B3B3"/>
<path d="M7.5 15.487V17.486H9.499L15.028 11.964L13.03 9.966L7.5 15.487ZM15.97 11.022L13.972 9.022L15.495 7.5L17.495 9.499L15.97 11.022Z" fill="#B3B3B3"/>
</svg>
