<svg width="39" height="39" viewBox="0 0 39 39" fill="none" xmlns="http://www.w3.org/2000/svg">
<rect width="38.6667" height="38.6667" rx="19.3333" fill="black" fill-opacity="0.25"/>
<path fill-rule="evenodd" clip-rule="evenodd" d="M19 11.6401C17.8701 12.6329 16.8251 13.7183 15.876 14.8851C14.305 16.8401 13 19.1501 13 21.3331C13 22.9244 13.6321 24.4505 14.7574 25.5758C15.8826 26.701 17.4087 27.3331 19 27.3331C20.5913 27.3331 22.1174 26.701 23.2426 25.5758C24.3679 24.4505 25 22.9244 25 21.3331C25 19.1501 23.695 16.8401 22.124 14.8851C21.1749 13.7183 20.1299 12.6329 19 11.6401ZM18.249 9.65411C18.4604 9.47968 18.7259 9.38428 19 9.38428C19.2741 9.38428 19.5396 9.47968 19.751 9.65411C21.1882 10.8488 22.5048 12.1815 23.682 13.6331C25.322 15.6721 27 18.4391 27 21.3331C27 23.4548 26.1571 25.4897 24.6569 26.99C23.1566 28.4903 21.1217 29.3331 19 29.3331C16.8783 29.3331 14.8434 28.4903 13.3431 26.99C11.8429 25.4897 11 23.4548 11 21.3331C11 18.4391 12.678 15.6721 14.318 13.6321C15.4949 12.1809 16.8122 10.8486 18.249 9.65411Z" fill="#101010"/>
<path d="M19.0003 26.0005C16.9613 26.0005 15.9367 24.9611 15.4387 24.1059C15.1254 23.5678 15.5719 23.0005 16.1946 23.0005L21.8056 23.0005C22.4283 23.0005 22.8747 23.5677 22.5615 24.1058C22.0638 24.961 21.0394 26.0005 19.0003 26.0005Z" fill="#94AFF3"/>
</svg>
