<svg width="184" height="63" viewBox="0 0 184 63" fill="none" xmlns="http://www.w3.org/2000/svg">
<path d="M15.1173 55.4729C12.7043 55.4729 10.779 54.8055 9.34147 53.4706C8.33177 52.4438 7.82692 51.1774 7.82692 49.6714C7.82692 48.8671 7.97239 48.0884 8.26332 47.3354C9.01631 45.5385 10.1287 44.0068 11.6005 42.7404C13.9279 40.7895 16.5035 39.4119 19.3272 38.6075C22.151 37.8032 25.0346 37.1956 27.9781 36.7849C29.2959 36.5796 30.5965 36.3571 31.88 36.1175C34.1048 35.6725 36.167 35.142 38.0666 34.5259L39.3501 34.0639C39.3159 34.0639 39.256 34.081 39.1704 34.1152C39.102 34.1494 39.0592 34.1665 39.0421 34.1665L38.9907 34.1922L39.4528 34.0125C40.4796 33.5505 41.3438 33.0884 42.0455 32.6263L42.1995 32.498L42.3792 32.3953L42.0712 32.6263L42.1738 32.5236C42.2594 32.4894 42.3279 32.4466 42.3792 32.3953C42.7899 32.0701 43.1408 31.7364 43.4317 31.3942L43.6884 31.1118L43.5344 31.2915L43.6884 31.0604C43.8595 30.8722 44.0392 30.5813 44.2275 30.1876L44.3301 29.9823H44.3558L44.1505 30.393C44.4072 29.7085 44.8264 29.1779 45.4083 28.8014C45.8361 28.579 46.264 28.4677 46.6918 28.4677C47.7186 28.4677 48.4973 28.9212 49.0278 29.8283C49.2503 30.2219 49.3615 30.6839 49.3615 31.2145C49.3615 31.454 49.3273 31.668 49.2589 31.8562C47.3421 36.5282 41.9257 39.6686 33.0095 41.2772C31.7431 41.5168 30.4682 41.7307 29.1846 41.919C25.1458 42.518 21.9456 43.2453 19.5839 44.101L19.1989 44.2293C19.216 44.2293 19.2417 44.2208 19.2759 44.2037C19.3101 44.1865 19.3443 44.178 19.3786 44.178C19.4128 44.1609 19.4385 44.1438 19.4556 44.1266H19.4813C19.3786 44.1951 19.293 44.2293 19.2246 44.2293L18.6855 44.4604C17.9838 44.7855 17.2993 45.1535 16.6318 45.5642L15.8361 46.1033C15.8361 46.0861 15.8361 46.0776 15.8361 46.0776C15.8532 46.0776 15.8789 46.0605 15.9131 46.0262C15.9473 46.0091 15.973 45.992 15.9901 45.9749C16.0072 45.9749 16.0414 45.9492 16.0928 45.8979C15.9559 46.0348 15.8104 46.1546 15.6564 46.2573C15.5195 46.36 15.3911 46.4712 15.2713 46.591C14.8777 46.9333 14.4755 47.3354 14.0648 47.7975L13.8338 48.0542L14.0648 47.7718L13.8851 48.0285C13.5771 48.4564 13.3888 48.7473 13.3204 48.9013L13.2434 49.1067L13.2177 49.1324L13.3717 48.773C13.3546 48.8757 13.3204 48.9698 13.269 49.0553C13.2348 49.1409 13.192 49.2693 13.1407 49.4404C13.1065 49.6115 13.0808 49.6971 13.0637 49.6971L13.115 49.5174V49.3891L13.1407 49.312L13.1664 49.4147C13.1664 49.5174 13.1492 49.6372 13.115 49.7741V49.8768C13.0979 49.8768 13.0893 49.8169 13.0893 49.6971C13.0722 49.6458 13.0637 49.5859 13.0637 49.5174C13.0979 49.5859 13.115 49.6885 13.115 49.8255L13.1407 49.9281H13.115L13.0893 49.8511C13.038 49.7484 13.0209 49.68 13.038 49.6458L13.1664 49.8511L12.961 49.5688L12.9867 49.5944C12.9867 49.6115 12.9952 49.6286 13.0123 49.6458C13.0466 49.68 13.0637 49.6971 13.0637 49.6971C13.0808 49.7142 13.115 49.7484 13.1664 49.7998L12.9096 49.5944H12.8583L12.9353 49.6201C13.0038 49.6543 13.0551 49.6885 13.0893 49.7228C13.1236 49.757 13.1578 49.7827 13.192 49.7998C13.2434 49.8169 13.3033 49.8426 13.3717 49.8768C13.4573 49.9281 13.5086 49.9538 13.5257 49.9538L13.4744 49.9281C13.4402 49.9281 13.3546 49.8939 13.2177 49.8255V49.7998C13.2348 49.8169 13.2605 49.8255 13.2947 49.8255C13.5001 49.9281 13.7996 50.0137 14.1932 50.0822L14.5269 50.1592H14.6039C14.5868 50.1592 14.5354 50.1592 14.4499 50.1592C14.3814 50.1592 14.3301 50.1421 14.2958 50.1078H14.2445C14.5183 50.1078 14.8863 50.1335 15.3483 50.1848L16.0158 50.1592C16.05 50.1421 16.1356 50.1335 16.2725 50.1335L15.9901 50.1078L15.9131 50.1335C15.9131 50.1506 15.9302 50.1592 15.9644 50.1592C16.3751 50.1592 17.1709 49.9624 18.3518 49.5688L18.4288 49.5431C18.2919 49.6115 18.2063 49.6543 18.1721 49.6714H18.1207C18.1207 49.6543 18.1464 49.6287 18.1977 49.5944C18.2662 49.5773 18.3432 49.5516 18.4288 49.5174C19.1818 49.2094 20.0203 48.7302 20.9445 48.0799L21.0471 48.0029H21.0728L21.0215 48.0285C20.9188 48.1312 20.8589 48.1826 20.8418 48.1826L20.7904 48.2082C20.7904 48.174 20.8418 48.1312 20.9445 48.0799C20.9787 48.0628 21.0044 48.0371 21.0215 48.0029C21.1584 47.9173 21.2867 47.8232 21.4065 47.7205C22.1424 47.1215 22.8954 46.3942 23.6655 45.5385L24.41 44.6657L24.3586 44.7684L24.1789 44.9738L24.2303 44.8968C24.2645 44.8454 24.3073 44.7941 24.3586 44.7427C24.8891 44.0582 25.4025 43.3223 25.8988 42.5351C26.6005 41.3885 27.4219 39.814 28.3632 37.8117L28.4915 37.5294L28.3375 37.8887L28.5429 37.401C29.1247 36.0662 30.1002 33.482 31.4693 29.6486C32.5132 26.551 34.1989 22.033 36.5264 16.0946L41.6091 17.5578C39.6581 22.5037 36.4836 26.4569 32.0854 29.4175C30.4596 30.5299 28.7055 31.4198 26.823 32.0873C24.9405 32.7376 23.0152 33.0798 21.0471 33.1141C18.8908 33.1141 16.9057 32.7033 15.0916 31.8819C13.2776 31.0433 11.7887 29.7341 10.625 27.9543C9.51261 26.0718 8.95642 24.0182 8.95642 21.7934C8.95642 21.725 8.96497 21.1003 8.98209 19.9195C8.9992 18.7216 9.41848 17.0958 10.2399 15.0421C11.763 11.2429 14.099 8.10259 17.2479 5.62113C20.3968 3.13966 24.0249 1.70212 28.1322 1.30851C28.4915 1.27428 28.8424 1.25717 29.1846 1.25717C29.9034 1.25717 30.7078 1.34274 31.5977 1.51387C32.5047 1.6679 33.4117 2.02728 34.3187 2.59203C36.3895 4.02957 37.4248 6.03185 37.4248 8.59889C37.2537 10.9092 36.3296 12.8773 34.6524 14.5031C32.7871 16.1973 30.2799 17.0444 27.131 17.0444C26.224 17.0444 25.2571 16.9674 24.2303 16.8134C20.8418 16.3 17.4191 15.5213 13.9621 14.4774C12.3706 13.9811 11.2582 13.6474 10.625 13.4763C10.2656 13.3907 9.85488 13.3051 9.39281 13.2195L9.72653 13.2709C9.70941 13.2538 9.67519 13.2452 9.62385 13.2452C9.58962 13.2452 9.54683 13.2367 9.49549 13.2195L8.57136 13.1939L7.90393 13.2195L8.28899 13.1939C8.25476 13.211 8.17775 13.2195 8.05795 13.2195C7.9895 13.2538 7.84404 13.288 7.62156 13.3222C7.38197 13.4249 7.20228 13.4848 7.08248 13.5019L7.46754 13.3992C7.4162 13.3992 7.34774 13.4164 7.26217 13.4506C7.17661 13.4848 7.10815 13.5105 7.05681 13.5276C6.78299 13.733 6.58619 13.8528 6.46639 13.887C6.51773 13.887 6.57763 13.8528 6.64609 13.7843L6.74877 13.6816L6.62042 13.7843C6.53485 13.8699 6.45784 13.9469 6.38938 14.0153C6.32093 14.0667 6.26959 14.1095 6.23536 14.1437C6.21825 14.1779 6.19258 14.2121 6.15835 14.2464C6.12412 14.2806 6.09845 14.3063 6.08134 14.3234C6.08134 14.272 6.11557 14.2292 6.18402 14.195C6.26959 14.0752 6.32093 14.0153 6.33804 14.0153C6.2867 14.118 6.2268 14.2121 6.15835 14.2977C6.0899 14.3833 6.03 14.4688 5.97866 14.5544C5.92732 14.6229 5.90165 14.6913 5.90165 14.7598V14.6828L6.08134 14.3234V14.3747L5.97866 14.6057C5.73907 15.3245 5.31979 15.855 4.72081 16.1973C4.31009 16.4027 3.88225 16.5054 3.43729 16.5054C2.35914 16.5054 1.58903 16.0604 1.12696 15.1705C0.887373 14.7427 0.767578 14.3063 0.767578 13.8613C0.767578 13.6217 0.801805 13.3821 0.870259 13.1425C1.24676 12.013 1.85429 11.029 2.69285 10.1904C4.3871 8.66734 6.4065 7.90579 8.75105 7.90579C10.1544 7.90579 12.0796 8.2994 14.5269 9.08663C17.2993 10.0108 20.3284 10.7638 23.6142 11.3456L24.3586 11.4996C24.6153 11.4996 24.7865 11.5253 24.872 11.5766L24.718 11.5253H24.5126L25.2828 11.6023C26.0015 11.6879 26.7289 11.7307 27.4647 11.7307C27.7557 11.7307 28.038 11.7221 28.3119 11.705L28.4659 11.6793H28.2092C28.1749 11.6964 28.1578 11.7136 28.1578 11.7307L28.2605 11.705C28.3119 11.705 28.3546 11.6964 28.3889 11.6793H28.4915C28.9365 11.5938 29.3815 11.4825 29.8264 11.3456C29.8606 11.3456 29.8949 11.3371 29.9291 11.3199C29.9633 11.3028 30.0318 11.2686 30.1344 11.2173C30.4425 11.0804 30.6479 10.9606 30.7505 10.8579L30.9046 10.7809C30.8703 10.7809 30.8104 10.8237 30.7249 10.9092L30.5965 11.0119L30.8019 10.8065C30.973 10.6867 31.1185 10.5498 31.2383 10.3958L31.418 10.1648L31.2126 10.4985C31.3153 10.3102 31.418 10.1477 31.5206 10.0108C31.6233 9.87385 31.7175 9.72838 31.803 9.57436C31.8372 9.50591 31.8629 9.45457 31.88 9.42034C31.8971 9.38611 31.9143 9.35188 31.9314 9.31766C31.9656 9.26632 31.9827 9.21498 31.9827 9.16364C31.9485 9.16364 31.8971 9.3091 31.8287 9.60003C31.8629 9.48024 31.9057 9.369 31.957 9.26632C32.0084 9.14652 32.0683 8.9326 32.1367 8.62456C32.1538 8.57322 32.1624 8.50476 32.1624 8.4192V8.47054L32.1367 8.57322V8.72724L32.1111 8.85559V8.59889C32.1282 8.56466 32.1367 8.38497 32.1367 8.05981V7.82878L32.1881 8.00847V8.21383L32.1624 8.16249C32.1282 8.11115 32.1111 8.02558 32.1111 7.90579C32.0597 7.80311 32.0255 7.71754 32.0084 7.64909C31.9913 7.56352 31.9742 7.51218 31.957 7.49506H31.9314V7.52073C31.9314 7.6063 31.9913 7.7261 32.1111 7.88012C31.9742 7.6063 31.8886 7.44372 31.8544 7.39238C31.8201 7.32393 31.7945 7.2897 31.7773 7.2897V7.31537C31.7773 7.40094 31.8629 7.49506 32.0341 7.59774L31.8287 7.36671C31.7089 7.24692 31.6319 7.16991 31.5977 7.13568C31.5634 7.10145 31.5463 7.07578 31.5463 7.05867L31.8544 7.31537C31.803 7.29826 31.7688 7.28114 31.7517 7.26403C31.7346 7.24692 31.5891 7.15279 31.3153 6.98166C31.2639 6.96454 31.2212 6.94743 31.1869 6.93032C31.1527 6.89609 31.1185 6.86186 31.0842 6.82763L31.0072 6.80196H31.0586C31.0928 6.81908 31.1356 6.84475 31.1869 6.87898C31.2554 6.89609 31.3067 6.9132 31.341 6.93032C31.3923 6.94743 31.418 6.96454 31.418 6.98166L30.7249 6.75062L30.0831 6.5966L29.9034 6.57093H30.0831C30.1516 6.60516 30.2029 6.62227 30.2371 6.62227L30.0574 6.5966C29.8007 6.57949 29.5355 6.57093 29.2617 6.57093C28.7654 6.57093 28.3974 6.57949 28.1578 6.5966H28.0808C28.0295 6.61372 27.9354 6.62227 27.7984 6.62227L27.6958 6.64794C27.8669 6.64794 27.9696 6.63083 28.0038 6.5966C27.9867 6.61372 27.9525 6.62227 27.9011 6.62227C27.8669 6.62227 27.8241 6.63083 27.7728 6.64794H27.6444L27.5417 6.67361C26.4465 6.87898 25.4796 7.12712 24.641 7.41805L24.1789 7.59774L24.4613 7.46939H24.5126C23.965 7.69187 23.4259 7.94002 22.8954 8.21383L20.8418 9.47168C20.9102 9.43745 20.9701 9.39467 21.0215 9.34333C20.9188 9.44601 20.8076 9.53158 20.6878 9.60003C19.6267 10.4215 18.617 11.4055 17.6587 12.5521C17.6073 12.6035 17.5817 12.6377 17.5817 12.6548C17.5817 12.6206 17.6159 12.5692 17.6843 12.5008L17.787 12.3724C17.787 12.3895 17.7699 12.4238 17.7357 12.4751C17.7014 12.5265 17.633 12.6035 17.5303 12.7061C17.4276 12.8773 17.3164 13.0399 17.1966 13.1939C16.4778 14.2378 15.8703 15.3074 15.374 16.4027L15.5024 16.146C15.3826 16.3856 15.2542 16.7107 15.1173 17.1214C14.8093 17.96 14.5782 18.8071 14.4242 19.6628C14.39 19.8168 14.3729 19.9794 14.3729 20.1505L14.4242 19.9965L14.3985 19.7912L14.4242 19.8938C14.4242 20.065 14.39 20.2532 14.3215 20.4586L14.2958 21.4854C14.2958 22.324 14.313 22.7604 14.3472 22.7946L14.3729 22.7689C14.3729 22.6662 14.3472 22.5636 14.2958 22.4609C14.313 22.4951 14.3215 22.5293 14.3215 22.5636C14.3215 22.5807 14.3301 22.6577 14.3472 22.7946C14.467 23.5647 14.6124 24.1038 14.7836 24.4118L14.8093 24.5402L14.7579 24.4632C14.7237 24.4289 14.698 24.3861 14.6809 24.3348C14.6809 24.2664 14.6723 24.2321 14.6552 24.2321C14.9804 24.8824 15.2285 25.336 15.3997 25.5927C15.4339 25.644 15.4596 25.6782 15.4767 25.6953C15.4938 25.7125 15.5024 25.7296 15.5024 25.7467L15.3997 25.5927C15.3312 25.5584 15.297 25.5156 15.297 25.4643L15.4253 25.5927C15.819 26.0889 16.1099 26.3884 16.2981 26.4911C16.3152 26.5253 16.3409 26.551 16.3751 26.5681L16.4265 26.6195V26.5938C16.4094 26.5767 16.3495 26.5339 16.2468 26.4654L16.0928 26.3371L16.1955 26.4141C16.4008 26.6195 16.8629 26.8933 17.5817 27.2356L17.71 27.3126L17.6587 27.2869C17.6244 27.2869 17.5645 27.2698 17.479 27.2356C17.3934 27.1842 17.3506 27.15 17.3506 27.1329C17.3506 27.15 17.4276 27.1842 17.5817 27.2356C17.6501 27.2527 17.71 27.2783 17.7613 27.3126C18.7368 27.6035 19.3272 27.749 19.5326 27.749C19.4984 27.749 19.4385 27.7318 19.3529 27.6976H19.1219C19.2246 27.6976 19.293 27.7062 19.3272 27.7233H19.4042C19.815 27.7917 20.4054 27.826 21.1755 27.826L22.382 27.749L22.5104 27.7233L22.1253 27.7746C22.2622 27.7404 22.3734 27.7233 22.459 27.7233C23.4174 27.5522 24.3672 27.3126 25.3084 27.0045C25.3769 26.9703 25.4453 26.9446 25.5138 26.9275C25.5994 26.8933 25.7191 26.8505 25.8732 26.7992H25.8475C25.8304 26.8163 25.8047 26.8334 25.7705 26.8505C25.7363 26.8505 25.702 26.8591 25.6678 26.8762C25.6336 26.8762 25.5994 26.8847 25.5651 26.9018C25.548 26.919 25.5309 26.9275 25.5138 26.9275C25.6165 26.8762 25.7106 26.8334 25.7962 26.7992C25.8988 26.7649 25.993 26.7307 26.0785 26.6965C27.2936 26.1488 28.3974 25.5413 29.39 24.8739L30.0061 24.4375L29.8777 24.5145L29.7237 24.6685L30.0831 24.3861C31.3495 23.3936 32.479 22.3068 33.4716 21.126L33.6256 20.9463L33.754 20.7923C33.8224 20.7238 33.9764 20.5185 34.216 20.1762C34.9177 19.1836 35.5937 18.037 36.244 16.7364C36.2611 16.6508 36.3124 16.5396 36.398 16.4027L36.4237 16.3L36.2697 16.685L36.5264 16.0946C37.0569 14.8282 37.904 14.195 39.0677 14.195C40.0774 14.195 40.8475 14.6485 41.3781 15.5556C41.6176 15.9663 41.7374 16.377 41.7374 16.7877C41.7374 17.0444 41.6947 17.3011 41.6091 17.5578L40.5566 20.3046C39.1704 23.9155 37.827 27.5436 36.5264 31.1888C35.1231 35.0565 34.0192 37.9315 33.2149 39.814C32.0512 42.6549 30.5452 45.2989 28.6969 47.7462C24.7094 52.846 20.1829 55.4216 15.1173 55.4729Z" fill="#F8F8F8"/>
<path d="M55.4454 45.1278C52.2109 45.1278 49.6097 43.9983 47.6416 41.7393C46.3239 40.2333 45.4939 38.4963 45.1516 36.5282C44.9633 35.3816 44.8692 34.235 44.8692 33.0884C44.8692 31.0177 45.3227 28.134 46.2298 24.4375C47.5646 19.0125 49.5241 13.7415 52.1083 8.62456C53.7683 5.35587 55.5738 3.05409 57.5247 1.71924C58.7398 0.897786 60.0746 0.487061 61.5293 0.487061C63.8054 0.487061 65.5766 1.50532 66.843 3.54183C67.6303 4.79112 68.0239 6.10886 68.0239 7.49506C68.0239 7.58063 68.0068 8.01703 67.9725 8.80425C67.9554 9.57436 67.6645 10.6867 67.0997 12.1414C66.535 13.5789 65.9103 14.9223 65.2258 16.1716C61.5293 22.8288 56.3268 27.9372 49.6182 31.4968C49.1733 31.7364 48.7369 31.8562 48.3091 31.8562C47.3507 31.8562 46.5977 31.3942 46.0501 30.47C45.8105 30.0764 45.6907 29.6657 45.6907 29.2378C45.6907 28.1939 46.1442 27.4238 47.0512 26.9275C47.7529 26.5339 48.446 26.1317 49.1305 25.721C50.3113 24.9851 50.9959 24.5231 51.1841 24.3348C51.2012 24.3348 51.2269 24.3263 51.2611 24.3091C51.2954 24.2749 51.3382 24.2407 51.3895 24.2065V24.1808L51.2611 24.2835L51.1071 24.4118L51.7489 23.9241C53.7854 22.3154 55.5395 20.6297 57.0113 18.867L57.4734 18.3279C57.3536 18.4649 57.2851 18.5419 57.268 18.559C57.2509 18.5761 57.2423 18.5932 57.2423 18.6103L57.4477 18.3536C59.005 16.2829 60.2885 14.2292 61.2982 12.1927L61.8887 10.9862C61.8373 11.0376 61.8117 11.0975 61.8117 11.1659L61.7346 11.2943L61.8887 10.9349C62.1796 10.2332 62.4021 9.53158 62.5561 8.82992L62.7101 8.18816L62.6331 8.52188C62.6673 8.24806 62.6844 8.10259 62.6844 8.08548C62.7016 8.05125 62.7101 7.99991 62.7101 7.93146C62.7101 7.79455 62.7101 7.67476 62.7101 7.57207C62.7272 7.3496 62.7187 7.22125 62.6844 7.18702L62.7358 7.52073C62.7358 7.43517 62.7272 7.36671 62.7101 7.31537C62.693 7.26403 62.6759 7.21269 62.6588 7.16135L62.5048 6.54526L62.5304 6.57093C62.5304 6.72495 62.5646 6.83619 62.6331 6.90465C62.5989 6.85331 62.5646 6.79341 62.5304 6.72495L62.2224 6.13454H62.1967L62.1197 6.00618C62.1368 6.00618 62.1454 6.0233 62.1454 6.05752C62.1625 6.07464 62.1796 6.09175 62.1967 6.10887C62.2138 6.12598 62.2652 6.19443 62.3507 6.31423C62.3336 6.31423 62.3165 6.29711 62.2994 6.26289L62.0684 6.05752C61.9999 6.00618 61.9486 5.94629 61.9143 5.87783L61.863 5.80082C61.8801 5.80082 61.8887 5.80938 61.8887 5.82649C61.9058 5.84361 61.94 5.87783 61.9913 5.92917C62.0598 5.98051 62.1026 6.01474 62.1197 6.03185H62.1454L62.017 5.92917C61.9314 5.86072 61.8716 5.82649 61.8373 5.82649C61.8202 5.80938 61.786 5.80082 61.7346 5.80082C61.7004 5.78371 61.6576 5.74948 61.6063 5.69814C61.5721 5.69814 61.5549 5.68958 61.5549 5.67247C61.7945 5.77515 61.9229 5.83505 61.94 5.85216C61.9571 5.85216 61.9657 5.86072 61.9657 5.87783L61.8373 5.80082L61.7603 5.77515L61.4266 5.69814L61.5036 5.72381C61.5721 5.74092 61.632 5.74948 61.6833 5.74948L61.786 5.77515H61.3239C61.3581 5.74092 61.4523 5.72381 61.6063 5.72381C61.5721 5.72381 61.5122 5.73237 61.4266 5.74948C61.3581 5.76659 61.2982 5.78371 61.2469 5.80082C61.1956 5.81793 61.1613 5.82649 61.1442 5.82649C61.1442 5.82649 61.033 5.86072 60.8105 5.92917L61.1442 5.80082C61.0929 5.83505 61.0415 5.86072 60.9902 5.87783C60.956 5.87783 60.9303 5.88639 60.9132 5.9035C60.7249 5.98907 60.5538 6.08319 60.3998 6.18588L60.3741 6.21155C60.2201 6.29711 60.1345 6.34845 60.1174 6.36557C60.1003 6.36557 60.0917 6.37413 60.0917 6.39124L60.3741 6.16021C60.2714 6.26289 60.2115 6.31423 60.1944 6.31423C59.8008 6.63939 59.4414 6.98166 59.1163 7.34104C59.0992 7.37527 59.082 7.4095 59.0649 7.44372C59.0478 7.47795 58.9965 7.53785 58.9109 7.62341L59.0136 7.46939C59.082 7.38383 59.1334 7.34104 59.1676 7.34104L58.8596 7.77744C57.6958 9.369 56.5663 11.3884 55.4711 13.8356L55.2657 14.3234L55.3941 14.041L55.3684 14.118L55.1117 14.7084C54.4443 16.2658 53.9565 17.4808 53.6485 18.3536C52.2794 22.1015 51.1585 26.2858 50.2857 30.9064C50.2686 31.0091 50.26 31.1374 50.26 31.2915V31.1374C50.2771 31.0177 50.2942 30.9406 50.3113 30.9064L50.2343 31.4968C50.2001 31.8904 50.183 32.2926 50.183 32.7033L50.2343 34.0125C50.2343 34.4575 50.2429 34.6885 50.26 34.7056V34.7826C50.2429 34.7484 50.2343 34.68 50.2343 34.5773V34.5516C50.2343 35.065 50.4226 35.895 50.7991 37.0416L50.9018 37.324C50.8162 37.0673 50.7734 36.9304 50.7734 36.9133H50.7477L50.7734 36.9389C50.7734 36.9561 50.7734 36.9817 50.7734 37.016C50.7905 37.0502 50.7991 37.0759 50.7991 37.093C50.8162 37.1101 50.8333 37.1272 50.8504 37.1443C51.09 37.6748 51.2611 37.9914 51.3638 38.0941V38.1198L51.2868 37.9914C51.2184 37.9572 51.1841 37.9059 51.1841 37.8374C51.1841 37.8545 51.2012 37.8802 51.2355 37.9144C51.4408 38.1882 51.6719 38.4364 51.9286 38.6589L52.2109 38.9156L51.8772 38.6332C51.8772 38.6503 51.8943 38.676 51.9286 38.7102C51.9799 38.7444 52.0312 38.7787 52.0826 38.8129C52.1339 38.83 52.1682 38.8471 52.1853 38.8642C52.4591 39.0525 52.75 39.2236 53.0581 39.3776L53.2634 39.4803L52.904 39.3263L52.8527 39.3006C52.8698 39.3006 52.9212 39.3263 53.0067 39.3776C53.0923 39.4119 53.2206 39.4546 53.3918 39.506C53.9052 39.66 54.2731 39.7456 54.4956 39.7627H54.7266H54.624L54.2646 39.737C54.4357 39.737 54.5897 39.737 54.7266 39.737L56.0615 39.7627C56.1128 39.7627 56.1984 39.7627 56.3182 39.7627L56.2412 39.7883C56.207 39.7883 56.1385 39.7969 56.0358 39.814C56.2241 39.7969 56.6091 39.7028 57.191 39.5316C57.3279 39.4974 57.4734 39.4546 57.6274 39.4033L58.0124 39.2493L57.6274 39.429C59.0991 38.6931 59.9463 38.2139 60.1688 37.9914L59.9891 38.1198L60.0404 38.0941C60.0746 38.0941 60.1174 38.0684 60.1688 38.0171L60.2971 37.9144C61.187 37.1956 61.8117 36.5881 62.171 36.0918C62.1882 36.0576 62.1625 36.0918 62.094 36.1945L62.171 36.0662C63.5743 33.8585 64.4557 32.2413 64.8151 31.2145C65.0718 30.4957 65.5339 29.9737 66.2013 29.6486C66.6291 29.4432 67.0741 29.3405 67.5361 29.3405C67.7586 29.3405 67.9811 29.3662 68.2036 29.4175C68.9394 29.6229 69.4614 30.0422 69.7695 30.6754C69.9748 31.1203 70.0775 31.5738 70.0775 32.0359C70.0775 32.806 69.8122 33.8072 69.2817 35.0393C68.5801 36.648 67.3308 38.3936 65.5339 40.2761C63.754 42.1586 61.6919 43.5362 59.3473 44.409C58.0809 44.8882 56.7803 45.1278 55.4454 45.1278Z" fill="#F8F8F8"/>
<path d="M88.0724 45.5128C86.7376 45.5128 85.5139 45.1962 84.4016 44.563C83.3063 43.9298 82.4506 42.9715 81.8345 41.688C81.2355 40.4044 80.9018 39.0182 80.8334 37.5294C80.8334 34.466 81.4837 30.5214 82.7843 25.6953L82.8357 25.4643L87.713 27.4152C85.5054 32.3782 82.5961 36.8962 78.9851 40.9692C76.6577 43.6047 74.2104 44.9652 71.6434 45.0508C70.3085 45.0508 69.0849 44.7427 67.9725 44.1266C66.8773 43.4934 65.9874 42.5522 65.3028 41.3029C64.5498 39.8654 64.1305 38.2738 64.045 36.5282C64.045 32.9686 64.9862 29.5288 66.8687 26.2087C67.4848 25.0621 68.2464 24.0268 69.1534 23.1026C70.9674 21.2544 73.1323 20.2789 75.648 20.1762C76.863 20.1762 77.9497 20.3217 78.9081 20.6126C80.9959 21.3314 82.6731 22.5892 83.9395 24.3861C84.8807 25.7552 85.3856 27.3468 85.454 29.1608C85.454 30.1021 85.4113 30.8722 85.3257 31.4712C85.1717 32.207 84.7695 32.7547 84.1192 33.1141C83.7085 33.3365 83.2721 33.4563 82.81 33.4734C81.7147 33.4734 80.9446 33.0542 80.4997 32.2156C80.2601 31.7535 80.1403 31.2401 80.1403 30.6754C80.1403 30.5042 80.1659 30.239 80.2173 29.8796L80.1916 30.0593L80.2173 29.5459C80.2173 29.2207 80.1916 28.9298 80.1403 28.6731L80.2173 29.0325L79.8836 27.8773C79.8665 27.8602 79.8493 27.8345 79.8322 27.8003C79.8151 27.749 79.8066 27.7062 79.8066 27.672L79.9349 28.0313C79.8665 27.8773 79.8237 27.8003 79.8066 27.8003C79.8066 27.7832 79.7638 27.6976 79.6782 27.5436C79.5071 27.2698 79.3702 27.0644 79.2675 26.9275C79.3359 26.996 79.3873 27.0644 79.4215 27.1329C79.4728 27.1842 79.5071 27.2184 79.5242 27.2356C79.5242 27.2356 79.49 27.2184 79.4215 27.1842C79.3702 27.1329 79.3188 27.0644 79.2675 26.9789L78.369 26.1574C78.4204 26.1745 78.4803 26.2087 78.5487 26.2601C78.6172 26.3114 78.6771 26.3542 78.7284 26.3884L78.4204 26.2344C78.1465 26.029 77.8043 25.8237 77.3935 25.6183H77.3679C77.3679 25.6697 77.4107 25.7039 77.4962 25.721C77.5818 25.721 77.6246 25.7296 77.6246 25.7467C77.5048 25.6953 77.2395 25.6269 76.8288 25.5413C76.7775 25.5242 76.709 25.5156 76.6234 25.5156C76.555 25.5156 76.478 25.4985 76.3924 25.4643C76.5635 25.5156 76.6833 25.5413 76.7518 25.5413C76.8031 25.5413 76.8288 25.5328 76.8288 25.5156C76.8117 25.4985 76.7176 25.49 76.5464 25.49L75.3656 25.5156V25.49H75.5453C75.357 25.5071 74.9292 25.6183 74.2618 25.8237H74.3131C74.0393 25.8921 73.7398 26.0633 73.4146 26.3371C73.3804 26.3713 73.3376 26.3884 73.2863 26.3884H73.312C73.312 26.3542 73.3462 26.32 73.4146 26.2858C73.4831 26.2344 73.543 26.1916 73.5943 26.1574L73.466 26.2858C73.2606 26.3884 72.9012 26.7649 72.3878 27.4152C72.3707 27.4152 72.3622 27.4238 72.3622 27.4409C72.2937 27.5949 72.2253 27.672 72.1568 27.672C72.2766 27.6548 72.3536 27.5607 72.3878 27.3896C71.6006 28.5191 70.9931 29.6229 70.5652 30.7011C70.531 30.8551 70.4797 31.0005 70.4112 31.1374L70.5652 30.8037C70.5652 30.7866 70.5567 30.7781 70.5396 30.7781C70.3342 31.2059 70.0775 31.9846 69.7695 33.1141C69.5128 34.0553 69.3844 34.6543 69.3844 34.911C69.3844 34.9966 69.3673 35.0736 69.3331 35.142C69.3331 35.0393 69.3416 34.9709 69.3587 34.9367C69.3416 35.0907 69.3331 35.4843 69.3331 36.1175C69.3331 36.5453 69.3331 36.7935 69.3331 36.8619C69.3502 36.9304 69.4614 37.3839 69.6668 38.2225C69.7352 38.308 69.7866 38.4022 69.8208 38.5048L69.7951 38.4792C69.778 38.3936 69.7267 38.308 69.6411 38.2225V38.1968L70.1802 39.0952C70.2315 39.1466 70.2657 39.1979 70.2829 39.2493C70.2657 39.2322 70.2401 39.215 70.2058 39.1979C70.1887 39.1808 70.1288 39.1038 70.0262 38.9669L70.6166 39.583C70.5824 39.583 70.5396 39.5659 70.4882 39.5316C70.4369 39.4974 70.3941 39.4461 70.3599 39.3776C70.377 39.3776 70.4112 39.3947 70.4626 39.429C70.5139 39.4632 70.5567 39.4974 70.5909 39.5316C70.6423 39.5488 70.685 39.5659 70.7193 39.583C70.7706 39.6001 70.8219 39.6258 70.8733 39.66C70.9417 39.6771 71.0016 39.7113 71.053 39.7627C71.0359 39.7456 70.9931 39.7285 70.9246 39.7113C70.8733 39.6771 70.8305 39.66 70.7963 39.66C70.762 39.6429 70.7449 39.6258 70.7449 39.6087C70.762 39.6429 70.8562 39.6686 71.0273 39.6857C71.1984 39.7028 71.3439 39.7285 71.4637 39.7627H71.1813L71.9514 39.7113L71.592 39.7883C71.592 39.7712 71.6177 39.7627 71.6691 39.7627C71.7375 39.7627 71.8145 39.7456 71.9001 39.7113C72.2766 39.6258 72.4905 39.5573 72.5419 39.506C72.5932 39.4546 72.636 39.4204 72.6702 39.4033L72.3622 39.583C73.0467 39.2407 73.4831 38.9755 73.6713 38.7872L73.7997 38.6845V38.7102C73.7655 38.7102 73.7227 38.7359 73.6713 38.7872C73.6371 38.8385 73.6029 38.8642 73.5687 38.8642C73.6371 38.8642 73.8083 38.7188 74.0821 38.4278C74.9891 37.5721 76.1357 36.2287 77.5219 34.3976L77.7529 34.1152L77.5476 34.4233L77.5989 34.2949C77.7872 34.0895 78.0952 33.6617 78.523 33.0114C80.2515 30.4957 81.7746 27.7661 83.0924 24.8225C83.5031 23.984 84.239 23.539 85.3 23.4877C86.4295 23.4877 87.2424 23.9583 87.7387 24.8996C87.9269 25.2418 88.0296 25.6012 88.0467 25.9777C88.0467 26.2686 88.0125 26.5852 87.9441 26.9275C87.2082 29.5801 86.6349 32.2584 86.2242 34.9623L86.1728 35.5527V35.1934C86.1386 35.6897 86.1215 36.0747 86.1215 36.3485C86.1215 37.5978 86.1557 38.2567 86.2242 38.3251C86.207 38.2909 86.1899 38.1882 86.1728 38.0171C86.207 38.0684 86.2242 38.1283 86.2242 38.1968C86.2242 38.385 86.3097 38.7102 86.4808 39.1723C86.498 39.2921 86.5322 39.3776 86.5835 39.429H86.5579L86.5322 39.352C86.4637 39.2493 86.4295 39.1894 86.4295 39.1723C86.4295 39.138 86.421 39.1124 86.4038 39.0952C86.421 39.0952 86.4381 39.1124 86.4552 39.1466C86.7461 39.6429 86.9258 39.9081 86.9943 39.9424C87.0114 39.9424 87.0199 39.9338 87.0199 39.9167C87.0028 39.8654 86.9001 39.7798 86.7119 39.66C86.7632 39.6942 86.9344 39.8568 87.2253 40.1477C87.1911 40.1135 87.1397 40.0793 87.0713 40.0451C87.0199 40.0108 86.9686 39.968 86.9172 39.9167V39.891L87.4563 40.1991C87.4392 40.1991 87.3793 40.182 87.2766 40.1477C87.1911 40.1135 87.1312 40.0793 87.0969 40.0451H87.1226C87.1911 40.1135 87.2937 40.1477 87.4307 40.1477C87.4649 40.1648 87.5162 40.182 87.5847 40.1991C87.6702 40.2162 87.7472 40.2247 87.8157 40.2247C87.867 40.2247 87.8927 40.2162 87.8927 40.1991L87.7644 40.1734L87.405 40.1991L87.482 40.1734C87.5847 40.1734 87.6874 40.1905 87.79 40.2247C88.081 40.2076 88.2607 40.1905 88.3291 40.1734L87.9441 40.2504C87.9612 40.2504 88.004 40.2333 88.0724 40.1991C88.1409 40.1648 88.235 40.1392 88.3548 40.1221C88.4746 40.1049 88.6029 40.0707 88.7398 40.0194C88.757 40.0023 88.7741 39.9937 88.7912 39.9937C88.8254 39.9766 88.8596 39.968 88.8939 39.968C88.9281 39.9509 88.9538 39.9338 88.9709 39.9167L88.7398 40.0194C89.065 39.8483 89.3217 39.6942 89.5099 39.5573L89.741 39.429C89.7239 39.429 89.7068 39.4375 89.6896 39.4546C89.6725 39.4717 89.6469 39.4974 89.6126 39.5316C89.5784 39.5659 89.5527 39.5915 89.5356 39.6087C89.5185 39.6087 89.5014 39.6087 89.4843 39.6087L89.587 39.506C90.0661 39.0439 90.4512 38.6075 90.7421 38.1968L90.5368 38.4535C90.6566 38.2652 90.7764 38.1112 90.8961 37.9914C91.5465 37.0331 92.231 35.741 92.9498 34.1152C92.984 34.0125 93.0268 33.9184 93.0781 33.8328L92.9241 34.2179C93.3006 33.0884 93.5488 32.2327 93.6685 31.6509C93.8568 30.9321 94.259 30.393 94.8751 30.0336C95.2858 29.794 95.7222 29.6657 96.1842 29.6486C97.2282 29.6486 97.9983 30.0679 98.4946 30.9064C98.717 31.3171 98.8454 31.745 98.8796 32.1899C98.8796 32.4295 98.8625 32.6691 98.8283 32.9087C98.1609 35.8693 96.9458 38.5818 95.1831 41.0462C94.3788 42.2442 93.3947 43.271 92.231 44.1266C90.9475 44.9823 89.5613 45.4444 88.0724 45.5128Z" fill="#F8F8F8"/>
<path d="M86.7632 61.4541C85.7364 61.4541 84.9749 61.0006 84.4786 60.0936C84.2561 59.6658 84.1448 59.2379 84.1448 58.8101C84.1448 58.3138 85.223 54.951 87.3793 48.7216C90.3228 40.5413 93.8996 31.3599 98.1095 21.1774C98.4004 20.4757 98.8283 19.9537 99.393 19.6115C99.7695 19.389 100.189 19.2778 100.651 19.2778C101.712 19.2778 102.482 19.7227 102.961 20.6126C103.201 21.0404 103.321 21.4768 103.321 21.9218C103.321 22.1785 103.278 22.4181 103.192 22.6406L100.112 30.2133C96.1586 39.8654 92.5733 49.6458 89.3559 59.5545C89.0992 60.2733 88.6714 60.7952 88.0724 61.1204C87.6617 61.3429 87.2253 61.4541 86.7632 61.4541ZM101.78 43.1768C99.7952 43.1768 97.9555 42.5265 96.2612 41.2259C94.6697 40.0279 93.66 38.4449 93.2321 36.4769C93.1979 36.2715 93.1808 36.0747 93.1808 35.8865C93.1808 34.6201 93.8311 33.7473 95.1317 33.2681C95.3713 33.1996 95.6024 33.1654 95.8248 33.1654C96.2869 33.1654 96.7832 33.328 97.3137 33.6531C97.8442 33.9612 98.1951 34.466 98.3662 35.1677L98.4946 35.7324L98.5972 36.0148C98.5801 35.9977 98.563 35.972 98.5459 35.9378C98.5288 35.8865 98.5031 35.8351 98.4689 35.7838C98.4518 35.7324 98.4432 35.6897 98.4432 35.6554L98.5459 35.8608L98.931 36.5282C98.9138 36.5282 98.8967 36.5197 98.8796 36.5025C98.8796 36.4854 98.8454 36.4255 98.7769 36.3229L98.6999 36.2202L98.931 36.4769C99.239 36.8534 99.4444 37.0673 99.547 37.1186V37.1443C99.4786 37.093 99.4272 37.0673 99.393 37.0673C99.3759 37.0502 99.3502 37.016 99.316 36.9646L99.47 37.0416C99.915 37.3668 100.223 37.555 100.394 37.6064L100.548 37.6834C100.309 37.5465 100.172 37.478 100.137 37.478C100.12 37.478 100.12 37.478 100.137 37.478C100.137 37.4951 100.189 37.5294 100.291 37.5807C100.942 37.7861 101.301 37.8887 101.37 37.8887C101.25 37.8887 101.173 37.8802 101.139 37.8631L101.062 37.8374L101.241 37.8631L101.883 37.8887C102.071 37.8887 102.251 37.8802 102.422 37.8631H102.576L102.602 37.8374L102.448 37.8631C102.345 37.8631 102.285 37.8716 102.268 37.8887C102.319 37.8716 102.362 37.8631 102.396 37.8631C102.448 37.8631 102.491 37.8545 102.525 37.8374C103.124 37.7347 103.517 37.632 103.706 37.5294C103.757 37.4951 103.808 37.478 103.86 37.478L103.552 37.6064L103.808 37.478C104.27 37.2898 104.698 37.0587 105.092 36.7849L105.169 36.7336C105.186 36.7165 105.212 36.6994 105.246 36.6822C105.297 36.648 105.34 36.6138 105.374 36.5796C105.426 36.5282 105.46 36.5025 105.477 36.5025C105.871 36.1603 106.264 35.7667 106.658 35.3217C107.086 34.7399 107.479 34.1323 107.839 33.4991C108.061 33.0199 108.224 32.6862 108.326 32.498L108.301 32.5236C108.284 32.5579 108.266 32.5921 108.249 32.6263C108.249 32.6606 108.241 32.6948 108.224 32.729C108.207 32.7632 108.189 32.7975 108.172 32.8317C108.172 32.7803 108.207 32.7033 108.275 32.6007C108.771 31.2658 109.131 30.1106 109.353 29.1352C109.353 28.9469 109.387 28.7501 109.456 28.5447C109.456 28.5619 109.447 28.5875 109.43 28.6218C109.43 28.656 109.43 28.7073 109.43 28.7758C109.43 28.8271 109.422 28.8528 109.404 28.8528L109.43 28.7758V28.6218C109.464 28.5191 109.481 28.2453 109.481 27.8003L109.456 26.9789L109.481 27.0815V27.2099L109.404 26.9275C109.37 26.7221 109.336 26.5681 109.302 26.4654L109.199 26.1831C109.268 26.32 109.302 26.4141 109.302 26.4654L109.276 26.3884C109.242 26.3371 109.208 26.2686 109.173 26.1831C109.139 26.0975 109.062 25.9692 108.942 25.798C108.874 25.7296 108.84 25.6697 108.84 25.6183H108.865L109.019 25.875L108.634 25.4643C108.566 25.3958 108.523 25.3616 108.506 25.3616C108.489 25.3445 108.472 25.3274 108.455 25.3103C108.438 25.2932 108.42 25.2846 108.403 25.2846L108.429 25.2589L108.455 25.3103C108.472 25.3274 108.515 25.3702 108.583 25.4386C108.669 25.49 108.72 25.5242 108.737 25.5413C108.72 25.5242 108.694 25.5071 108.66 25.49C108.643 25.4729 108.617 25.4557 108.583 25.4386C108.566 25.4215 108.523 25.3958 108.455 25.3616C108.403 25.3274 108.335 25.2932 108.249 25.2589C108.181 25.2076 108.147 25.1734 108.147 25.1563C108.181 25.1563 108.241 25.1819 108.326 25.2333C108.429 25.2675 108.48 25.2932 108.48 25.3103H108.455C108.438 25.3103 108.403 25.3017 108.352 25.2846C108.301 25.2675 108.249 25.2589 108.198 25.2589C108.078 25.2418 107.975 25.2076 107.89 25.1563C107.975 25.2076 108.061 25.2333 108.147 25.2333H108.224C108.224 25.2162 108.155 25.2076 108.018 25.2076H107.633C107.599 25.2247 107.556 25.2333 107.505 25.2333C107.471 25.2333 107.445 25.2333 107.428 25.2333C107.428 25.2162 107.436 25.2076 107.454 25.2076L107.762 25.1819C107.676 25.2504 107.505 25.2846 107.248 25.2846C106.786 25.4215 106.538 25.4985 106.504 25.5156C106.469 25.5328 106.418 25.5499 106.35 25.567C106.298 25.5841 106.264 25.5927 106.247 25.5927L106.221 25.6183C106.238 25.6183 106.256 25.6098 106.273 25.5927C106.307 25.5755 106.341 25.567 106.375 25.567C106.41 25.5499 106.444 25.5413 106.478 25.5413C106.512 25.5242 106.529 25.5071 106.529 25.49C106.444 25.5584 106.35 25.6098 106.247 25.644C106.161 25.6611 106.102 25.6868 106.067 25.721C105.52 25.9606 104.886 26.3285 104.168 26.8248L103.654 27.1585L103.706 27.1329C103.757 27.0986 103.791 27.073 103.808 27.0559C103.843 27.0216 103.868 27.0045 103.885 27.0045L103.783 27.0815C102.67 27.9201 101.626 28.9212 100.651 30.085C100.617 30.1705 100.548 30.2561 100.446 30.3417C100.497 30.2732 100.523 30.2304 100.523 30.2133C100.54 30.1962 100.591 30.1449 100.677 30.0593C100.659 30.0593 100.642 30.085 100.625 30.1363C100.488 30.2732 100.172 30.7011 99.6754 31.4198C99.0422 32.2413 98.3063 32.652 97.4678 32.652C97.0228 32.652 96.5436 32.5322 96.0302 32.2926C95.1745 31.7963 94.7467 31.0177 94.7467 29.9566C94.7467 29.4945 94.875 29.0582 95.1317 28.6474C97.8357 24.6771 101.096 21.956 104.912 20.4843C105.871 20.1078 106.855 19.9195 107.864 19.9195C107.95 19.9195 108.292 19.9281 108.891 19.9452C109.49 19.9623 110.277 20.2618 111.253 20.8436C113.015 22.0245 114.128 23.6588 114.59 25.7467C114.693 26.4483 114.744 27.15 114.744 27.8516C114.744 29.3919 114.487 30.9064 113.974 32.3953C112.707 36.6052 110.483 39.6771 107.299 41.6109C105.622 42.6549 103.783 43.1768 101.78 43.1768ZM107.094 43.9983C104.476 43.9983 101.883 43.6047 99.316 42.8175C98.6144 42.5779 98.0924 42.1586 97.7501 41.5596C97.5448 41.1489 97.4421 40.721 97.4421 40.2761C97.4421 39.215 97.887 38.4449 98.7769 37.9658C99.1877 37.7433 99.6069 37.632 100.035 37.632C100.274 37.632 100.523 37.6663 100.779 37.7347C101.738 38.0257 102.713 38.2652 103.706 38.4535C103.911 38.4535 104.116 38.4877 104.322 38.5562C104.082 38.5048 103.962 38.4706 103.962 38.4535L103.988 38.4792C104.005 38.4792 104.048 38.4877 104.116 38.5048C104.185 38.5048 104.262 38.5134 104.347 38.5305C104.45 38.5476 104.527 38.5647 104.578 38.5818C105.417 38.6674 106.264 38.7102 107.12 38.7102C107.599 38.7102 108.087 38.6931 108.583 38.6589L109.379 38.6075L109.481 38.5818H109.507L109.327 38.6075H109.404C109.832 38.5562 110.252 38.4877 110.662 38.4022C111.912 38.1626 112.887 37.8887 113.589 37.5807L113.922 37.478L113.589 37.6064L113.743 37.5294C114.376 37.324 115.334 36.8106 116.618 35.9891C116.652 35.9549 116.686 35.9292 116.721 35.9121C116.772 35.8779 116.806 35.8522 116.823 35.8351C116.857 35.818 116.917 35.7838 117.003 35.7324L116.695 35.9378L117.568 35.1934C118.577 34.4061 119.561 33.4392 120.52 32.2926C120.605 32.1899 120.648 32.13 120.648 32.1129C120.648 32.1471 120.588 32.2242 120.468 32.344L120.699 32.0616C121.059 31.6337 121.47 31.0433 121.932 30.2903C122.496 29.4518 123.258 29.0325 124.216 29.0325C124.678 29.0325 125.132 29.1523 125.577 29.3919C126.415 29.8882 126.835 30.6583 126.835 31.7022C126.835 32.1814 126.715 32.6263 126.475 33.0371C125.157 35.1078 123.592 36.9646 121.778 38.6075C117.773 42.2014 112.879 43.9983 107.094 43.9983Z" fill="#F8F8F8"/>
<path d="M114.847 61.4541C113.82 61.4541 113.058 61.0006 112.562 60.0936C112.339 59.6658 112.228 59.2379 112.228 58.8101C112.228 58.3138 113.306 54.951 115.463 48.7216C118.406 40.5413 121.983 31.3599 126.193 21.1774C126.484 20.4757 126.912 19.9537 127.476 19.6115C127.853 19.389 128.272 19.2778 128.734 19.2778C129.795 19.2778 130.565 19.7227 131.045 20.6126C131.284 21.0404 131.404 21.4768 131.404 21.9218C131.404 22.1785 131.361 22.4181 131.276 22.6406L128.195 30.2133C124.242 39.8654 120.657 49.6458 117.439 59.5545C117.183 60.2733 116.755 60.7952 116.156 61.1204C115.745 61.3429 115.309 61.4541 114.847 61.4541ZM129.864 43.1768C127.879 43.1768 126.039 42.5265 124.345 41.2259C122.753 40.0279 121.743 38.4449 121.316 36.4769C121.281 36.2715 121.264 36.0747 121.264 35.8865C121.264 34.6201 121.914 33.7473 123.215 33.2681C123.455 33.1996 123.686 33.1654 123.908 33.1654C124.37 33.1654 124.867 33.328 125.397 33.6531C125.928 33.9612 126.278 34.466 126.45 35.1677L126.578 35.7324L126.681 36.0148C126.663 35.9977 126.646 35.972 126.629 35.9378C126.612 35.8865 126.586 35.8351 126.552 35.7838C126.535 35.7324 126.527 35.6897 126.527 35.6554L126.629 35.8608L127.014 36.5282C126.997 36.5282 126.98 36.5197 126.963 36.5025C126.963 36.4854 126.929 36.4255 126.86 36.3229L126.783 36.2202L127.014 36.4769C127.322 36.8534 127.528 37.0673 127.63 37.1186V37.1443C127.562 37.093 127.511 37.0673 127.476 37.0673C127.459 37.0502 127.434 37.016 127.399 36.9646L127.553 37.0416C127.998 37.3668 128.306 37.555 128.478 37.6064L128.632 37.6834C128.392 37.5465 128.255 37.478 128.221 37.478C128.204 37.478 128.204 37.478 128.221 37.478C128.221 37.4951 128.272 37.5294 128.375 37.5807C129.025 37.7861 129.385 37.8887 129.453 37.8887C129.333 37.8887 129.256 37.8802 129.222 37.8631L129.145 37.8374L129.325 37.8631L129.966 37.8887C130.155 37.8887 130.334 37.8802 130.505 37.8631H130.66L130.685 37.8374L130.531 37.8631C130.428 37.8631 130.369 37.8716 130.351 37.8887C130.403 37.8716 130.446 37.8631 130.48 37.8631C130.531 37.8631 130.574 37.8545 130.608 37.8374C131.207 37.7347 131.601 37.632 131.789 37.5294C131.84 37.4951 131.892 37.478 131.943 37.478L131.635 37.6064L131.892 37.478C132.354 37.2898 132.782 37.0587 133.175 36.7849L133.252 36.7336C133.269 36.7165 133.295 36.6994 133.329 36.6822C133.381 36.648 133.423 36.6138 133.458 36.5796C133.509 36.5282 133.543 36.5025 133.56 36.5025C133.954 36.1603 134.347 35.7667 134.741 35.3217C135.169 34.7399 135.563 34.1323 135.922 33.4991C136.144 33.0199 136.307 32.6862 136.41 32.498L136.384 32.5236C136.367 32.5579 136.35 32.5921 136.333 32.6263C136.333 32.6606 136.324 32.6948 136.307 32.729C136.29 32.7632 136.273 32.7975 136.256 32.8317C136.256 32.7803 136.29 32.7033 136.358 32.6007C136.855 31.2658 137.214 30.1106 137.436 29.1352C137.436 28.9469 137.471 28.7501 137.539 28.5447C137.539 28.5619 137.531 28.5875 137.513 28.6218C137.513 28.656 137.513 28.7073 137.513 28.7758C137.513 28.8271 137.505 28.8528 137.488 28.8528L137.513 28.7758V28.6218C137.548 28.5191 137.565 28.2453 137.565 27.8003L137.539 26.9789L137.565 27.0815V27.2099L137.488 26.9275C137.454 26.7221 137.419 26.5681 137.385 26.4654L137.282 26.1831C137.351 26.32 137.385 26.4141 137.385 26.4654L137.359 26.3884C137.325 26.3371 137.291 26.2686 137.257 26.1831C137.223 26.0975 137.146 25.9692 137.026 25.798C136.957 25.7296 136.923 25.6697 136.923 25.6183H136.949L137.103 25.875L136.718 25.4643C136.649 25.3958 136.606 25.3616 136.589 25.3616C136.572 25.3445 136.555 25.3274 136.538 25.3103C136.521 25.2932 136.504 25.2846 136.487 25.2846L136.512 25.2589L136.538 25.3103C136.555 25.3274 136.598 25.3702 136.666 25.4386C136.752 25.49 136.803 25.5242 136.82 25.5413C136.803 25.5242 136.778 25.5071 136.743 25.49C136.726 25.4729 136.701 25.4557 136.666 25.4386C136.649 25.4215 136.606 25.3958 136.538 25.3616C136.487 25.3274 136.418 25.2932 136.333 25.2589C136.264 25.2076 136.23 25.1734 136.23 25.1563C136.264 25.1563 136.324 25.1819 136.41 25.2333C136.512 25.2675 136.564 25.2932 136.564 25.3103H136.538C136.521 25.3103 136.487 25.3017 136.435 25.2846C136.384 25.2675 136.333 25.2589 136.281 25.2589C136.162 25.2418 136.059 25.2076 135.973 25.1563C136.059 25.2076 136.144 25.2333 136.23 25.2333H136.307C136.307 25.2162 136.239 25.2076 136.102 25.2076H135.717C135.682 25.2247 135.64 25.2333 135.588 25.2333C135.554 25.2333 135.528 25.2333 135.511 25.2333C135.511 25.2162 135.52 25.2076 135.537 25.2076L135.845 25.1819C135.759 25.2504 135.588 25.2846 135.331 25.2846C134.869 25.4215 134.621 25.4985 134.587 25.5156C134.553 25.5328 134.501 25.5499 134.433 25.567C134.382 25.5841 134.347 25.5927 134.33 25.5927L134.305 25.6183C134.322 25.6183 134.339 25.6098 134.356 25.5927C134.39 25.5755 134.424 25.567 134.459 25.567C134.493 25.5499 134.527 25.5413 134.561 25.5413C134.596 25.5242 134.613 25.5071 134.613 25.49C134.527 25.5584 134.433 25.6098 134.33 25.644C134.245 25.6611 134.185 25.6868 134.151 25.721C133.603 25.9606 132.97 26.3285 132.251 26.8248L131.738 27.1585L131.789 27.1329C131.84 27.0986 131.875 27.073 131.892 27.0559C131.926 27.0216 131.952 27.0045 131.969 27.0045L131.866 27.0815C130.754 27.9201 129.71 28.9212 128.734 30.085C128.7 30.1705 128.632 30.2561 128.529 30.3417C128.58 30.2732 128.606 30.2304 128.606 30.2133C128.623 30.1962 128.674 30.1449 128.76 30.0593C128.743 30.0593 128.726 30.085 128.709 30.1363C128.572 30.2732 128.255 30.7011 127.759 31.4198C127.126 32.2413 126.39 32.652 125.551 32.652C125.106 32.652 124.627 32.5322 124.114 32.2926C123.258 31.7963 122.83 31.0177 122.83 29.9566C122.83 29.4945 122.958 29.0582 123.215 28.6474C125.919 24.6771 129.179 21.956 132.996 20.4843C133.954 20.1078 134.938 19.9195 135.948 19.9195C136.033 19.9195 136.375 19.9281 136.974 19.9452C137.573 19.9623 138.361 20.2618 139.336 20.8436C141.099 22.0245 142.211 23.6588 142.673 25.7467C142.776 26.4483 142.827 27.15 142.827 27.8516C142.827 29.3919 142.571 30.9064 142.057 32.3953C140.791 36.6052 138.566 39.6771 135.383 41.6109C133.706 42.6549 131.866 43.1768 129.864 43.1768ZM135.177 43.9983C132.559 43.9983 129.966 43.6047 127.399 42.8175C126.698 42.5779 126.176 42.1586 125.833 41.5596C125.628 41.1489 125.525 40.721 125.525 40.2761C125.525 39.215 125.97 38.4449 126.86 37.9658C127.271 37.7433 127.69 37.632 128.118 37.632C128.358 37.632 128.606 37.6663 128.863 37.7347C129.821 38.0257 130.796 38.2652 131.789 38.4535C131.994 38.4535 132.2 38.4877 132.405 38.5562C132.165 38.5048 132.046 38.4706 132.046 38.4535L132.071 38.4792C132.088 38.4792 132.131 38.4877 132.2 38.5048C132.268 38.5048 132.345 38.5134 132.431 38.5305C132.533 38.5476 132.61 38.5647 132.662 38.5818C133.5 38.6674 134.347 38.7102 135.203 38.7102C135.682 38.7102 136.17 38.6931 136.666 38.6589L137.462 38.6075L137.565 38.5818H137.59L137.411 38.6075H137.488C137.916 38.5562 138.335 38.4877 138.746 38.4022C139.995 38.1626 140.97 37.8887 141.672 37.5807L142.006 37.478L141.672 37.6064L141.826 37.5294C142.459 37.324 143.418 36.8106 144.701 35.9891C144.735 35.9549 144.77 35.9292 144.804 35.9121C144.855 35.8779 144.889 35.8522 144.907 35.8351C144.941 35.818 145.001 35.7838 145.086 35.7324L144.778 35.9378L145.651 35.1934C146.661 34.4061 147.645 33.4392 148.603 32.2926C148.689 32.1899 148.731 32.13 148.731 32.1129C148.731 32.1471 148.672 32.2242 148.552 32.344L148.783 32.0616C149.142 31.6337 149.553 31.0433 150.015 30.2903C150.58 29.4518 151.341 29.0325 152.3 29.0325C152.762 29.0325 153.215 29.1523 153.66 29.3919C154.499 29.8882 154.918 30.6583 154.918 31.7022C154.918 32.1814 154.798 32.6263 154.559 33.0371C153.241 35.1078 151.675 36.9646 149.861 38.6075C145.856 42.2014 140.962 43.9983 135.177 43.9983Z" fill="#F8F8F8"/>
<path d="M153.557 62.5323C152.359 62.5323 151.187 62.2413 150.041 61.6595C148.261 60.6669 147.148 59.178 146.703 57.1928C146.635 56.7992 146.601 56.4227 146.601 56.0634C146.601 54.3349 147.268 52.8289 148.603 51.5454C150.314 50.0907 152.385 49.3634 154.815 49.3634C155.431 49.3634 156.047 49.4062 156.664 49.4917L158.717 49.7998C158.649 49.7998 158.58 49.7827 158.512 49.7484H158.435L158.512 49.7741L158.82 49.7998C159.59 49.9196 160.36 49.9795 161.13 49.9795L161.952 49.9538L162.593 49.8768C162.559 49.8939 162.482 49.9025 162.362 49.9025L162.26 49.9281L162.593 49.8768C163.791 49.6543 164.767 49.4062 165.52 49.1324C165.537 49.1152 165.563 49.0981 165.597 49.081C165.648 49.081 165.708 49.0639 165.777 49.0297C165.862 48.9954 165.922 48.9783 165.956 48.9783L165.674 49.081C165.691 49.081 165.708 49.0725 165.725 49.0553C165.742 49.0553 165.759 49.0468 165.777 49.0297C165.811 49.0297 165.845 49.0126 165.879 48.9783C165.931 48.9612 165.973 48.9527 166.008 48.9527C166.144 48.8842 166.393 48.7644 166.752 48.5933C167.128 48.4221 167.488 48.2425 167.83 48.0542C168.994 47.3868 169.696 46.9333 169.935 46.6937H169.961L169.909 46.7193C169.807 46.8049 169.747 46.8477 169.73 46.8477C169.73 46.8477 169.73 46.8563 169.73 46.8734L169.755 46.822C169.858 46.7878 169.927 46.7365 169.961 46.668C170.851 45.9835 171.681 45.2219 172.451 44.3833C172.673 44.1095 172.793 43.9555 172.81 43.9213C172.844 43.8871 172.87 43.8699 172.887 43.8699L172.733 44.0753L172.631 44.178L172.708 44.0753C173.683 42.8089 174.496 41.4911 175.146 40.1221L175.66 39.0439C175.643 39.061 175.625 39.0867 175.608 39.1209C175.608 39.1551 175.6 39.1894 175.583 39.2236C175.565 39.2578 175.548 39.2921 175.531 39.3263C175.531 39.3434 175.523 39.352 175.506 39.352L175.788 38.7102C176.609 36.6908 177.362 34.3719 178.047 31.7535C178.269 31.0348 178.697 30.5128 179.33 30.1876C179.741 29.9652 180.186 29.8539 180.665 29.8539C181.709 29.8539 182.454 30.3074 182.899 31.2145C183.121 31.6423 183.232 32.0787 183.232 32.5236C183.232 32.8146 182.984 33.8414 182.488 35.6041C181.718 38.2738 180.7 40.8665 179.433 43.3822C178.167 45.8808 176.473 48.0628 174.35 49.9281C171.698 52.2214 168.677 53.8215 165.289 54.7285C163.851 55.105 162.405 55.2932 160.951 55.2932C160.129 55.2932 159.025 55.182 157.639 54.9595L157.177 54.8825C157.126 54.8825 157.066 54.8654 156.997 54.8312C156.929 54.8141 156.664 54.7884 156.201 54.7542C155.654 54.6857 155.004 54.6515 154.251 54.6515L154.045 54.6772H153.891C153.977 54.6772 154.037 54.6686 154.071 54.6515H154.122C153.523 54.7884 153.215 54.8568 153.198 54.8568C153.198 54.8568 153.147 54.8825 153.044 54.9339H152.967L152.941 54.9595L153.326 54.7798V54.8055H153.275C153.258 54.8226 153.241 54.8312 153.224 54.8312C153.207 54.8483 153.181 54.8568 153.147 54.8568C153.13 54.874 153.112 54.8825 153.095 54.8825C152.839 55.0023 152.659 55.105 152.556 55.1906L152.274 55.3446L152.608 55.1135C152.454 55.2162 152.257 55.3874 152.017 55.627C151.966 55.6954 151.932 55.7296 151.915 55.7296L152.094 55.4729C152.111 55.4729 152.12 55.4815 152.12 55.4986L151.786 56.0377L151.992 55.6526H151.966V55.7296C151.932 55.781 151.915 55.8238 151.915 55.858V55.9093L151.863 56.012C151.863 55.858 151.872 55.781 151.889 55.781V56.1147C151.889 56.2687 151.88 56.3457 151.863 56.3457V56.2687C151.846 56.2345 151.838 56.1831 151.838 56.1147C151.838 56.0462 151.838 55.9949 151.838 55.9607L151.889 56.1404C151.889 56.1746 151.906 56.2345 151.94 56.3201L151.992 56.4997C151.974 56.4997 151.957 56.4826 151.94 56.4484C151.923 56.4142 151.906 56.3714 151.889 56.3201C151.872 56.2858 151.863 56.243 151.863 56.1917L151.838 56.1404L152.171 56.7308L152.12 56.6794C152.069 56.6452 152.043 56.6024 152.043 56.5511L152.017 56.4997L152.3 56.7565L152.505 56.9875L152.197 56.7565C152.248 56.7565 152.3 56.7821 152.351 56.8335C152.419 56.8848 152.479 56.9361 152.531 56.9875C152.719 57.1244 152.856 57.1928 152.941 57.1928C152.924 57.1928 152.899 57.1843 152.864 57.1672C152.847 57.1501 152.813 57.1329 152.762 57.1158C152.727 57.0987 152.685 57.0816 152.633 57.0645C152.599 57.0645 152.582 57.0559 152.582 57.0388C152.582 57.073 152.642 57.0902 152.762 57.0902L152.839 57.1415H152.941C153.01 57.1757 153.07 57.1928 153.121 57.1928C153.19 57.21 153.232 57.2185 153.249 57.2185C153.267 57.2185 153.275 57.2271 153.275 57.2442H153.249C153.112 57.2442 153.01 57.2271 152.941 57.1928H153.018C153.053 57.21 153.172 57.2185 153.378 57.2185H153.917L153.814 57.2442H153.686C153.788 57.21 153.891 57.1928 153.994 57.1928C154.233 57.1415 154.405 57.0902 154.507 57.0388C154.524 57.0388 154.541 57.0303 154.559 57.0132C154.593 57.0132 154.627 57.0046 154.661 56.9875C154.695 56.9875 154.721 56.9789 154.738 56.9618H154.79C154.755 56.9618 154.704 56.9789 154.636 57.0132C154.567 57.0474 154.524 57.0731 154.507 57.0902H154.456L154.559 57.0388C154.969 56.8677 155.354 56.6623 155.714 56.4227L155.893 56.2944H155.868L155.611 56.4997C155.68 56.4142 155.757 56.3372 155.842 56.2687C156.03 56.1489 156.304 55.8922 156.664 55.4986L156.946 55.1906L156.741 55.4473C156.843 55.2932 157.014 55.0622 157.254 54.7542C157.939 53.7445 158.7 52.324 159.539 50.4929L159.667 50.2362L159.641 50.2619C159.624 50.2961 159.599 50.3389 159.564 50.3902C159.547 50.4587 159.539 50.5014 159.539 50.5186L159.513 50.5699L160.283 48.696C161.207 46.2829 162.054 43.8357 162.824 41.3542C163.885 38.0856 165.135 34.5345 166.572 30.7011C167.582 27.9629 168.557 25.2076 169.499 22.4352L171.578 23.0256C171.646 23.0598 171.715 23.0855 171.783 23.1026C171.869 23.1197 171.946 23.1454 172.014 23.1796C172.1 23.1968 172.203 23.2224 172.322 23.2567C173.229 23.4962 173.982 23.7102 174.581 23.8984L173.144 27.3382C172.066 30.008 170.893 32.6263 169.627 35.1934C167.094 40.3103 163.749 43.4164 159.59 44.5117C158.803 44.6999 158.033 44.7941 157.28 44.7941C155.585 44.7941 153.977 44.3149 152.454 43.3565C150.605 42.1586 149.519 40.5927 149.193 38.6589C149.091 37.923 149.039 37.1956 149.039 36.4769C149.039 34.4404 149.51 31.9418 150.451 28.9811C151.085 26.9617 151.615 25.5242 152.043 24.6685C152.505 23.5048 153.053 22.3753 153.686 21.28C154.216 20.4586 154.952 20.0479 155.893 20.0479C156.373 20.0479 156.852 20.1677 157.331 20.4072C158.17 20.9207 158.589 21.6736 158.589 22.6662C158.589 23.1454 158.46 23.6075 158.204 24.0524C157.947 24.4803 157.707 24.9252 157.485 25.3873L157.074 26.3114C157.091 26.2943 157.117 26.2259 157.151 26.1061C157.203 25.9692 157.237 25.9007 157.254 25.9007L157.126 26.1317L156.946 26.5938C156.039 28.7672 155.32 30.9834 154.79 33.2424C154.618 33.9612 154.516 34.5088 154.482 34.8853C154.464 34.9195 154.456 34.9623 154.456 35.0137C154.456 35.0479 154.447 35.0907 154.43 35.142C154.43 35.0565 154.43 35.0051 154.43 34.988C154.447 34.9538 154.464 34.8596 154.482 34.7056V34.757C154.396 35.4073 154.345 36.049 154.328 36.6822C154.328 36.9903 154.336 37.2898 154.353 37.5807L154.379 37.7091L154.353 37.6834V37.5807C154.336 37.5465 154.328 37.4438 154.328 37.2727L154.353 37.5037L154.533 38.2225L154.456 38.0428C154.387 37.923 154.353 37.8288 154.353 37.7604C154.541 38.1198 154.636 38.2995 154.636 38.2995L154.764 38.4792C154.747 38.4792 154.73 38.4621 154.713 38.4278C154.696 38.3936 154.678 38.3679 154.661 38.3508C154.644 38.3337 154.601 38.2738 154.533 38.1711L154.687 38.3508L155.226 38.8899L154.995 38.7102V38.6845L155.021 38.7102C155.106 38.7958 155.32 38.9327 155.662 39.1209C155.782 39.1723 155.893 39.2322 155.996 39.3006C155.979 39.2835 155.953 39.2749 155.919 39.2749C155.885 39.2578 155.842 39.2407 155.791 39.2236C155.757 39.2065 155.722 39.1894 155.688 39.1723C155.654 39.1552 155.628 39.1466 155.611 39.1466V39.1209L155.893 39.2236C156.133 39.3263 156.373 39.4033 156.612 39.4546C156.664 39.4546 156.715 39.4632 156.766 39.4803C156.818 39.4974 156.86 39.506 156.895 39.506C156.929 39.506 156.946 39.4974 156.946 39.4803C156.929 39.4632 156.783 39.4546 156.51 39.4546L157.177 39.4803H157.947C157.93 39.4974 157.887 39.5145 157.819 39.5316C157.75 39.5316 157.707 39.5316 157.69 39.5316H157.639V39.506C157.742 39.506 157.827 39.4974 157.896 39.4803C157.981 39.4461 158.05 39.429 158.101 39.429C158.392 39.3605 158.674 39.2835 158.948 39.1979L159.256 39.0952H159.205L158.948 39.1979C159.051 39.1295 159.29 39.0182 159.667 38.8642C160.112 38.6246 160.377 38.4706 160.463 38.4022C160.565 38.3166 160.668 38.2481 160.771 38.1968L160.668 38.2738C160.6 38.3423 160.548 38.3765 160.514 38.3765L160.565 38.3251C161.267 37.7775 161.969 37.1015 162.67 36.2972L162.747 36.1688C162.679 36.1688 162.619 36.263 162.568 36.4512C162.619 36.3485 162.688 36.2544 162.773 36.1688L163.184 35.6298C164.228 34.1067 165.237 32.2413 166.213 30.0336L166.316 29.8026H166.341L166.316 29.8283C166.298 29.8625 166.273 29.9138 166.239 29.9823C166.221 30.0507 166.204 30.1021 166.187 30.1363L166.213 30.0593C166.213 30.0251 166.247 29.9566 166.316 29.8539L168.036 25.8237L169.499 22.4352C169.738 21.7507 170.158 21.2201 170.757 20.8436C171.167 20.6212 171.587 20.5099 172.014 20.5099C173.058 20.5099 173.837 20.9634 174.35 21.8705C174.573 22.2812 174.684 22.709 174.684 23.154C174.684 23.3936 174.65 23.6417 174.581 23.8984C174.137 25.336 173.127 28.2025 171.552 32.498C170.183 36.263 168.866 40.0536 167.599 43.8699C166.504 47.3782 165.186 50.8095 163.646 54.1637C162.927 55.7553 162.029 57.2356 160.951 58.6047C159.633 60.2476 157.99 61.4199 156.022 62.1215C155.183 62.3954 154.362 62.5323 153.557 62.5323Z" fill="#F8F8F8"/>
</svg>
